<svg width="72" height="304" viewBox="0 0 72 304" fill="none" xmlns="http://www.w3.org/2000/svg">
<path fill-rule="evenodd" clip-rule="evenodd" d="M53.9813 287.907L80.7774 303.412L80.7766 303.412L80.7782 303.413L80.7837 303.417L80.79 303.421L80.7963 303.425L80.7971 303.426L80.8034 303.43L80.8105 303.435L80.8149 303.437L80.8176 303.438L80.8248 303.443L80.8319 303.448H80.833L80.8385 303.451L80.8456 303.456L80.8519 303.459L80.853 303.46L80.8601 303.463L80.8672 303.468L80.8719 303.469L80.8754 303.471L80.8825 303.475L80.8897 303.479H80.8913L80.8968 303.482L80.9039 303.486L80.9094 303.488L80.911 303.488H80.9121L80.9192 303.492L80.9274 303.496L80.931 303.496L80.9346 303.498L80.9417 303.502L80.9452 303.504L80.9499 303.505L80.9507 303.506L80.9578 303.508L80.965 303.511L80.9713 303.513L80.9729 303.514L80.98 303.517L80.9882 303.519L80.9918 303.521L80.9964 303.522L81.0047 303.525L81.0118 303.528H81.0137L81.02 303.53L81.0282 303.532L81.0345 303.534L81.0364 303.535L81.0446 303.537L81.0529 303.539H81.0564L81.0611 303.541L81.0693 303.543L81.0775 303.545H81.0783L81.0854 303.547L81.0945 303.549L81.1008 303.551H81.1024L81.1106 303.552L81.1188 303.554H81.1224L81.1271 303.555L81.1361 303.557L81.1443 303.558H81.1451L81.1522 303.56L81.1613 303.561L81.1676 303.562H81.1695L81.1785 303.563L81.1821 303.564L81.1903 303.564H81.1958L81.204 303.566L81.213 303.566L81.2213 303.567H81.2303L81.2366 303.568H81.2393H81.2475L81.2566 303.569H81.2593H81.2656H81.2738H81.2829H81.2919H81.3001H81.3064H81.3091L81.3182 303.568H81.3264H81.3291L81.3354 303.567H81.3445L81.3527 303.566L81.3617 303.566L81.3699 303.564H81.3754L81.3836 303.564L81.3872 303.563L81.3962 303.562H81.3981L81.4044 303.561L81.4135 303.56L81.4206 303.558H81.4214L81.4296 303.557L81.4387 303.555L81.4433 303.554H81.4469L81.4551 303.552L81.4633 303.551H81.4652L81.4715 303.549L81.4806 303.547L81.4877 303.545H81.4885L81.4967 303.543L81.5049 303.541L81.5093 303.539H81.5129L81.5211 303.537L81.5293 303.535L81.5312 303.534L81.5375 303.532L81.5457 303.53L81.552 303.528H81.5528L81.5611 303.525L81.5693 303.522L81.5739 303.521L81.5775 303.519L81.5857 303.517L81.5928 303.514L81.5947 303.513L81.601 303.511L81.6082 303.508L81.6153 303.506L81.6161 303.505L81.6197 303.504L81.6243 303.502L81.6314 303.498L81.635 303.496L81.6385 303.496L81.6468 303.492L81.6539 303.488H81.6547L81.6566 303.488L81.6621 303.486L81.6692 303.482L81.6747 303.479H81.6766L81.6837 303.475L81.6908 303.471L81.6944 303.469L81.6991 303.468L81.7062 303.463L81.7133 303.46L81.7141 303.459L81.7204 303.456L81.7275 303.451L81.733 303.448H81.7338L81.741 303.443L81.7481 303.438L81.7508 303.437L81.7555 303.435L81.7626 303.43L81.7689 303.426L81.7697 303.425L81.776 303.421L81.7823 303.417L81.7878 303.413L81.7894 303.412L108.585 287.907C108.843 287.78 109.03 287.534 109.079 287.24L109.081 287.233L109.083 287.212L109.084 287.211L109.085 287.197L109.087 287.188V287.182L109.088 287.168L109.089 287.165V287.153L109.091 287.124L109.091 287.119V287.11V287.095V258.044C109.091 257.687 108.885 257.38 108.586 257.233L81.7897 241.728L81.7881 241.727L81.7826 241.724L81.7763 241.719L81.77 241.716L81.7692 241.715L81.7629 241.71L81.7557 241.707L81.7511 241.704L81.7484 241.702L81.7412 241.697L81.7341 241.694L81.7333 241.693L81.7314 241.692L81.7278 241.69L81.7207 241.686L81.7144 241.682L81.7136 241.681L81.7065 241.678L81.6993 241.674L81.6947 241.671L81.6911 241.671L81.684 241.667L81.6769 241.663L81.675 241.663L81.6695 241.66L81.6624 241.656L81.6553 241.653H81.6544L81.6473 241.649L81.6391 241.646L81.6355 241.645L81.632 241.643L81.6249 241.64L81.6166 241.637L81.6158 241.636L81.6087 241.634L81.6016 241.631L81.5953 241.628L81.5934 241.628L81.5863 241.625L81.578 241.622L81.5745 241.621L81.5698 241.619L81.5616 241.617L81.5534 241.614H81.5526L81.5463 241.612L81.5381 241.609L81.5318 241.607H81.5298L81.5216 241.605L81.5134 241.603L81.5099 241.602L81.5055 241.6L81.4973 241.598L81.489 241.597H81.4882L81.4811 241.595L81.4721 241.593L81.4658 241.591H81.4639L81.4556 241.589L81.4474 241.587H81.4439L81.4392 241.586L81.4302 241.584L81.422 241.584H81.4211L81.414 241.582L81.405 241.581L81.3987 241.58H81.3968L81.3877 241.579L81.3795 241.578L81.376 241.577H81.3705L81.3623 241.576L81.3532 241.575L81.345 241.574H81.336L81.3297 241.573H81.3269H81.3187L81.3097 241.573H81.307H81.3007H81.2924H81.2834H81.2744H81.2662H81.2599H81.2571L81.2481 241.573H81.2399H81.2371L81.2308 241.574H81.2218L81.2136 241.575L81.2045 241.576L81.1963 241.577H81.1909L81.1873 241.578L81.1791 241.579L81.17 241.58H81.1681L81.1618 241.581L81.1528 241.582L81.1457 241.584H81.1449L81.1366 241.584L81.1276 241.586L81.123 241.587H81.1194L81.1112 241.589L81.103 241.591H81.1013L81.095 241.593L81.086 241.595L81.0789 241.597H81.078L81.0698 241.598L81.0616 241.6L81.057 241.602L81.0534 241.603L81.0452 241.605L81.037 241.607H81.0351L81.0288 241.609L81.0205 241.612L81.0142 241.614H81.0123L81.0052 241.617L80.997 241.619L80.9923 241.621L80.9888 241.622L80.9806 241.625L80.9734 241.628L80.9718 241.628L80.9655 241.631L80.9584 241.634L80.9513 241.636L80.9504 241.637L80.9422 241.64L80.9351 241.643L80.9316 241.645L80.928 241.646L80.9198 241.649L80.9127 241.653H80.9116L80.9044 241.656L80.8973 241.66L80.8918 241.663L80.8902 241.663L80.8831 241.667L80.876 241.671L80.8724 241.671L80.8678 241.674L80.8606 241.678L80.8535 241.681L80.8524 241.682L80.8461 241.686L80.839 241.69L80.8354 241.692L80.8338 241.693L80.8327 241.694L80.8256 241.697L80.8185 241.702L80.8157 241.704L80.8113 241.707L80.8042 241.71L80.7979 241.715L80.7971 241.716L80.7908 241.719L80.7845 241.724L80.779 241.727L80.7774 241.728L53.9813 257.233C53.7234 257.36 53.5369 257.606 53.4882 257.9L53.4865 257.907L53.4838 257.929L53.483 257.929L53.4822 257.943L53.4803 257.952V257.958L53.4794 257.972L53.4783 257.975V257.987L53.4767 258.016L53.4756 258.021V258.03V258.045V287.095C53.4756 287.452 53.6821 287.76 53.9813 287.907ZM78.3347 275.599C78.8438 276.126 79.4906 276.51 80.2136 276.685V301.431L56.6838 287.312L77.686 274.709C77.8633 275.035 78.0813 275.335 78.3347 275.599ZM106.953 259.744L106.953 259.744H106.953V259.744ZM106.953 259.744L85.5621 272.321C85.569 272.42 85.5725 272.519 85.5725 272.619L85.5672 272.823L106.953 285.398V259.744ZM77.0003 272.809L76.9958 272.619C76.9958 272.525 76.9993 272.43 77.0054 272.337L55.6147 259.744V285.398L77.0001 272.809L77.0003 272.809ZM78.3312 270.691C78.0991 270.933 77.8939 271.205 77.7257 271.502L56.6838 258.886L80.2136 244.779V269.602C79.4906 269.776 78.8422 270.161 78.3312 270.691ZM82.3527 268.538C83.0863 268.71 83.7437 269.097 84.258 269.63C84.4885 269.87 84.6908 270.14 84.8592 270.433L105.883 257.824L82.3527 243.71V268.538ZM84.2614 275.583C84.5103 275.323 84.7259 275.03 84.9002 274.709L105.883 287.305L82.3527 301.431V276.68C83.0863 276.508 83.7442 276.12 84.2614 275.583ZM79.7689 274.084C80.1556 274.47 80.6918 274.709 81.2834 274.709C81.875 274.709 82.4115 274.469 82.7979 274.084C83.1838 273.698 83.4226 273.162 83.4226 272.571C83.4226 271.98 83.183 271.444 82.7979 271.057C82.4112 270.673 81.875 270.433 81.2834 270.433C80.6918 270.433 80.1554 270.672 79.7689 271.057C79.3841 271.444 79.1445 271.98 79.1445 272.571C79.1445 273.162 79.3833 273.698 79.7689 274.084Z" fill="#E7E7E7" fill-opacity="0.1"/>
<path fill-rule="evenodd" clip-rule="evenodd" d="M53.9813 226.979L80.7774 242.484L80.7766 242.485L80.7782 242.485L80.7837 242.489L80.79 242.494L80.7963 242.497L80.7971 242.498L80.8034 242.503L80.8105 242.507L80.8149 242.509L80.8176 242.511L80.8248 242.516L80.8319 242.52H80.833L80.8385 242.524L80.8456 242.529L80.8519 242.531L80.853 242.532L80.8601 242.536L80.8672 242.54L80.8719 242.542L80.8754 242.544L80.8825 242.547L80.8897 242.551H80.8913L80.8968 242.555L80.9039 242.558L80.9094 242.56L80.911 242.561H80.9121L80.9192 242.564L80.9274 242.568L80.931 242.569L80.9346 242.571L80.9417 242.574L80.9452 242.576L80.9499 242.577L80.9507 242.578L80.9578 242.581L80.965 242.584L80.9713 242.586L80.9729 242.586L80.98 242.589L80.9882 242.592L80.9918 242.593L80.9964 242.595L81.0047 242.597L81.0118 242.6H81.0137L81.02 242.603L81.0282 242.605L81.0345 242.606L81.0364 242.608L81.0446 242.609L81.0529 242.612H81.0564L81.0611 242.614L81.0693 242.616L81.0775 242.618H81.0783L81.0854 242.619L81.0945 242.621L81.1008 242.623H81.1024L81.1106 242.625L81.1188 242.627H81.1224L81.1271 242.628L81.1361 242.63L81.1443 242.631H81.1451L81.1522 242.632L81.1613 242.633L81.1676 242.634H81.1695L81.1785 242.635L81.1821 242.636L81.1903 242.637H81.1958L81.204 242.638L81.213 242.639L81.2213 242.64H81.2303L81.2366 242.641H81.2393H81.2475L81.2566 242.642H81.2593H81.2656H81.2738H81.2829H81.2919H81.3001H81.3064H81.3091L81.3182 242.641H81.3264H81.3291L81.3354 242.64H81.3445L81.3527 242.639L81.3617 242.638L81.3699 242.637H81.3754L81.3836 242.636L81.3872 242.635L81.3962 242.634H81.3981L81.4044 242.633L81.4135 242.632L81.4206 242.631H81.4214L81.4296 242.63L81.4387 242.628L81.4433 242.627H81.4469L81.4551 242.625L81.4633 242.623H81.4652L81.4715 242.621L81.4806 242.619L81.4877 242.618H81.4885L81.4967 242.616L81.5049 242.614L81.5093 242.612H81.5129L81.5211 242.609L81.5293 242.608L81.5312 242.606L81.5375 242.605L81.5457 242.603L81.552 242.6H81.5528L81.5611 242.597L81.5693 242.595L81.5739 242.593L81.5775 242.592L81.5857 242.589L81.5928 242.586L81.5947 242.586L81.601 242.584L81.6082 242.581L81.6153 242.578L81.6161 242.577L81.6197 242.576L81.6243 242.574L81.6314 242.571L81.635 242.569L81.6385 242.568L81.6468 242.564L81.6539 242.561H81.6547L81.6566 242.56L81.6621 242.558L81.6692 242.555L81.6747 242.551H81.6766L81.6837 242.547L81.6908 242.544L81.6944 242.542L81.6991 242.54L81.7062 242.536L81.7133 242.532L81.7141 242.531L81.7204 242.529L81.7275 242.524L81.733 242.52H81.7338L81.741 242.516L81.7481 242.511L81.7508 242.509L81.7555 242.507L81.7626 242.503L81.7689 242.498L81.7697 242.497L81.776 242.494L81.7823 242.489L81.7878 242.485L81.7894 242.485L108.585 226.98C108.843 226.852 109.03 226.606 109.079 226.313L109.081 226.306L109.083 226.284L109.084 226.283L109.085 226.27L109.087 226.26V226.255L109.088 226.24L109.089 226.238V226.226L109.091 226.197L109.091 226.191V226.182V226.168V197.117C109.091 196.76 108.885 196.453 108.586 196.305L81.7897 180.8L81.7881 180.8L81.7826 180.796L81.7763 180.792L81.77 180.788L81.7692 180.787L81.7629 180.783L81.7557 180.779L81.7511 180.776L81.7484 180.775L81.7412 180.77L81.7341 180.766L81.7333 180.766L81.7314 180.765L81.7278 180.762L81.7207 180.758L81.7144 180.755L81.7136 180.754L81.7065 180.75L81.6993 180.747L81.6947 180.744L81.6911 180.743L81.684 180.74L81.6769 180.736L81.675 180.735L81.6695 180.732L81.6624 180.729L81.6553 180.725H81.6544L81.6473 180.722L81.6391 180.719L81.6355 180.717L81.632 180.715L81.6249 180.713L81.6166 180.709L81.6158 180.708L81.6087 180.706L81.6016 180.704L81.5953 180.701L81.5934 180.7L81.5863 180.697L81.578 180.695L81.5745 180.694L81.5698 180.692L81.5616 180.689L81.5534 180.686H81.5526L81.5463 180.684L81.5381 180.682L81.5318 180.68H81.5298L81.5216 180.677L81.5134 180.676L81.5099 180.674L81.5055 180.673L81.4973 180.671L81.489 180.669H81.4882L81.4811 180.667L81.4721 180.665L81.4658 180.664H81.4639L81.4556 180.662L81.4474 180.66H81.4439L81.4392 180.659L81.4302 180.657L81.422 180.656H81.4211L81.414 180.654L81.405 180.653L81.3987 180.653H81.3968L81.3877 180.651L81.3795 180.651L81.376 180.65H81.3705L81.3623 180.649L81.3532 180.648L81.345 180.647H81.336L81.3297 180.646H81.3269H81.3187L81.3097 180.645H81.307H81.3007H81.2924H81.2834H81.2744H81.2662H81.2599H81.2571L81.2481 180.646H81.2399H81.2371L81.2308 180.647H81.2218L81.2136 180.648L81.2045 180.649L81.1963 180.65H81.1909L81.1873 180.651L81.1791 180.651L81.17 180.653H81.1681L81.1618 180.653L81.1528 180.654L81.1457 180.656H81.1449L81.1366 180.657L81.1276 180.659L81.123 180.66H81.1194L81.1112 180.662L81.103 180.664H81.1013L81.095 180.665L81.086 180.667L81.0789 180.669H81.078L81.0698 180.671L81.0616 180.673L81.057 180.674L81.0534 180.676L81.0452 180.677L81.037 180.68H81.0351L81.0288 180.682L81.0205 180.684L81.0142 180.686H81.0123L81.0052 180.689L80.997 180.692L80.9923 180.694L80.9888 180.695L80.9806 180.697L80.9734 180.7L80.9718 180.701L80.9655 180.704L80.9584 180.706L80.9513 180.708L80.9504 180.709L80.9422 180.713L80.9351 180.715L80.9316 180.717L80.928 180.719L80.9198 180.722L80.9127 180.725H80.9116L80.9044 180.729L80.8973 180.732L80.8918 180.735L80.8902 180.736L80.8831 180.74L80.876 180.743L80.8724 180.744L80.8678 180.747L80.8606 180.75L80.8535 180.754L80.8524 180.755L80.8461 180.758L80.839 180.762L80.8354 180.765L80.8338 180.766L80.8327 180.766L80.8256 180.77L80.8185 180.775L80.8157 180.776L80.8113 180.779L80.8042 180.783L80.7979 180.787L80.7971 180.788L80.7908 180.792L80.7845 180.796L80.779 180.8L80.7774 180.8L53.9813 196.305C53.7234 196.433 53.5369 196.679 53.4882 196.972L53.4865 196.979L53.4838 197.001L53.483 197.002L53.4822 197.016L53.4803 197.025V197.03L53.4794 197.045L53.4783 197.047V197.059L53.4767 197.088L53.4756 197.094V197.103V197.117V226.168C53.4756 226.525 53.6821 226.832 53.9813 226.979ZM78.3347 214.671C78.8438 215.199 79.4906 215.582 80.2136 215.758V240.504L56.6838 226.384L77.686 213.781C77.8633 214.107 78.0813 214.407 78.3347 214.671ZM106.953 198.817L106.953 198.817H106.953V198.817ZM106.953 198.817L85.5621 211.394C85.569 211.492 85.5725 211.592 85.5725 211.692L85.5672 211.895L106.953 224.47V198.817ZM77.0003 211.881L76.9958 211.692C76.9958 211.597 76.9993 211.502 77.0054 211.409L55.6147 198.817V224.47L77.0001 211.881L77.0003 211.881ZM78.3312 209.764C78.0991 210.006 77.8939 210.278 77.7257 210.574L56.6838 197.959L80.2136 183.852V208.674C79.4906 208.849 78.8422 209.234 78.3312 209.764ZM82.3527 207.61C83.0863 207.782 83.7437 208.169 84.258 208.703C84.4885 208.943 84.6908 209.213 84.8592 209.506L105.883 196.896L82.3527 182.783V207.61ZM84.2614 214.655C84.5103 214.395 84.7259 214.102 84.9002 213.781L105.883 226.378L82.3527 240.504V215.752C83.0863 215.58 83.7442 215.192 84.2614 214.655ZM79.7689 213.157C80.1556 213.543 80.6918 213.781 81.2834 213.781C81.875 213.781 82.4115 213.542 82.7979 213.157C83.1838 212.77 83.4226 212.235 83.4226 211.643C83.4226 211.052 83.183 210.516 82.7979 210.13C82.4112 209.745 81.875 209.506 81.2834 209.506C80.6918 209.506 80.1554 209.744 79.7689 210.13C79.3841 210.516 79.1445 211.052 79.1445 211.643C79.1445 212.235 79.3833 212.771 79.7689 213.157Z" fill="#E7E7E7" fill-opacity="0.1"/>
<path fill-rule="evenodd" clip-rule="evenodd" d="M0.506729 226.979L27.3028 242.484L27.302 242.485L27.3036 242.485L27.3091 242.489L27.3154 242.494L27.3217 242.497L27.3225 242.498L27.3288 242.503L27.3359 242.507L27.3403 242.509L27.343 242.511L27.3502 242.516L27.3573 242.52H27.3584L27.3638 242.524L27.371 242.529L27.3773 242.531L27.3784 242.532L27.3855 242.536L27.3926 242.54L27.3973 242.542L27.4008 242.544L27.4079 242.547L27.415 242.551H27.4167L27.4222 242.555L27.4293 242.558L27.4348 242.56L27.4364 242.561H27.4375L27.4446 242.564L27.4528 242.568L27.4564 242.569L27.46 242.571L27.4671 242.574L27.4706 242.576L27.4753 242.577L27.4761 242.578L27.4832 242.581L27.4903 242.584L27.4966 242.586L27.4983 242.586L27.5054 242.589L27.5136 242.592L27.5172 242.593L27.5218 242.595L27.5301 242.597L27.5372 242.6H27.5391L27.5454 242.603L27.5536 242.605L27.5599 242.606L27.5618 242.608L27.57 242.609L27.5782 242.612H27.5818L27.5865 242.614L27.5947 242.616L27.6029 242.618H27.6037L27.6108 242.619L27.6199 242.621L27.6262 242.623H27.6278L27.636 242.625L27.6442 242.627H27.6478L27.6524 242.628L27.6615 242.63L27.6697 242.631H27.6705L27.6776 242.632L27.6867 242.633L27.693 242.634H27.6949L27.7039 242.635L27.7075 242.636L27.7157 242.637H27.7212L27.7294 242.638L27.7384 242.639L27.7466 242.64H27.7557L27.762 242.641H27.7647H27.7729L27.782 242.642H27.7847H27.791H27.7992H27.8083H27.8173H27.8255H27.8318H27.8345L27.8436 242.641H27.8518H27.8545L27.8608 242.64H27.8699L27.8781 242.639L27.8871 242.638L27.8953 242.637H27.9008L27.909 242.636L27.9126 242.635L27.9216 242.634H27.9235L27.9298 242.633L27.9389 242.632L27.946 242.631H27.9468L27.955 242.63L27.9641 242.628L27.9687 242.627H27.9723L27.9805 242.625L27.9887 242.623H27.9906L27.9969 242.621L28.0059 242.619L28.0131 242.618H28.0139L28.0221 242.616L28.0303 242.614L28.0347 242.612H28.0383L28.0465 242.609L28.0547 242.608L28.0566 242.606L28.0629 242.605L28.0711 242.603L28.0774 242.6H28.0782L28.0864 242.597L28.0947 242.595L28.0993 242.593L28.1029 242.592L28.1111 242.589L28.1182 242.586L28.1201 242.586L28.1264 242.584L28.1335 242.581L28.1407 242.578L28.1415 242.577L28.145 242.576L28.1497 242.574L28.1568 242.571L28.1604 242.569L28.1639 242.568L28.1722 242.564L28.1793 242.561H28.1801L28.182 242.56L28.1875 242.558L28.1946 242.555L28.2001 242.551H28.202L28.2091 242.547L28.2162 242.544L28.2198 242.542L28.2245 242.54L28.2316 242.536L28.2387 242.532L28.2395 242.531L28.2458 242.529L28.2529 242.524L28.2584 242.52H28.2592L28.2663 242.516L28.2735 242.511L28.2762 242.509L28.2809 242.507L28.288 242.503L28.2943 242.498L28.2951 242.497L28.3014 242.494L28.3077 242.489L28.3132 242.485L28.3148 242.485L55.1109 226.98C55.3688 226.852 55.5553 226.606 55.604 226.313L55.6059 226.306L55.6087 226.284L55.6095 226.283L55.6103 226.27L55.6122 226.26V226.255L55.6133 226.24L55.6141 226.238V226.226L55.6161 226.197L55.6169 226.191V226.182V226.168V197.117C55.6169 196.76 55.4104 196.453 55.1111 196.305L28.3151 180.8L28.3134 180.8L28.308 180.796L28.3017 180.792L28.2954 180.788L28.2945 180.787L28.2883 180.783L28.2811 180.779L28.2765 180.776L28.2737 180.775L28.2666 180.77L28.2595 180.766L28.2587 180.766L28.2568 180.765L28.2532 180.762L28.2461 180.758L28.2398 180.755L28.239 180.754L28.2318 180.75L28.2247 180.747L28.2201 180.744L28.2165 180.743L28.2094 180.74L28.2023 180.736L28.2004 180.735L28.1949 180.732L28.1878 180.729L28.1806 180.725H28.1798L28.1727 180.722L28.1645 180.719L28.1609 180.717L28.1574 180.715L28.1502 180.713L28.142 180.709L28.1412 180.708L28.1341 180.706L28.127 180.704L28.1207 180.701L28.1188 180.7L28.1116 180.697L28.1034 180.695L28.0999 180.694L28.0952 180.692L28.087 180.689L28.0788 180.686H28.078L28.0717 180.684L28.0634 180.682L28.0572 180.68H28.0552L28.047 180.677L28.0388 180.676L28.0352 180.674L28.0309 180.673L28.0226 180.671L28.0144 180.669H28.0136L28.0065 180.667L27.9975 180.665L27.9912 180.664H27.9892L27.981 180.662L27.9728 180.66H27.9693L27.9646 180.659L27.9556 180.657L27.9473 180.656H27.9465L27.9394 180.654L27.9304 180.653L27.9241 180.653H27.9222L27.9131 180.651L27.9049 180.651L27.9013 180.65H27.8959L27.8877 180.649L27.8786 180.648L27.8704 180.647H27.8614L27.8551 180.646H27.8523H27.8441L27.8351 180.645H27.8323H27.826H27.8178H27.8088H27.7998H27.7915H27.7852H27.7825L27.7735 180.646H27.7653H27.7625L27.7562 180.647H27.7472L27.739 180.648L27.7299 180.649L27.7217 180.65H27.7162L27.7127 180.651L27.7045 180.651L27.6954 180.653H27.6935L27.6872 180.653L27.6782 180.654L27.6711 180.656H27.6702L27.662 180.657L27.653 180.659L27.6483 180.66H27.6448L27.6366 180.662L27.6284 180.664H27.6267L27.6204 180.665L27.6114 180.667L27.6043 180.669H27.6034L27.5952 180.671L27.587 180.673L27.5824 180.674L27.5788 180.676L27.5706 180.677L27.5624 180.68H27.5604L27.5541 180.682L27.5459 180.684L27.5396 180.686H27.5377L27.5306 180.689L27.5224 180.692L27.5177 180.694L27.5142 180.695L27.506 180.697L27.4988 180.7L27.4972 180.701L27.4909 180.704L27.4838 180.706L27.4767 180.708L27.4758 180.709L27.4676 180.713L27.4605 180.715L27.4569 180.717L27.4534 180.719L27.4452 180.722L27.438 180.725H27.437L27.4298 180.729L27.4227 180.732L27.4172 180.735L27.4156 180.736L27.4085 180.74L27.4014 180.743L27.3978 180.744L27.3931 180.747L27.386 180.75L27.3789 180.754L27.3778 180.755L27.3715 180.758L27.3644 180.762L27.3608 180.765L27.3592 180.766L27.3581 180.766L27.351 180.77L27.3439 180.775L27.3411 180.776L27.3367 180.779L27.3296 180.783L27.3233 180.787L27.3225 180.788L27.3162 180.792L27.3099 180.796L27.3044 180.8L27.3028 180.8L0.506729 196.305C0.248795 196.433 0.0623245 196.679 0.0135841 196.972L0.01194 196.979L0.00920105 197.001L0.00838089 197.002L0.00756073 197.016L0.00564194 197.025V197.03L0.00482178 197.045L0.00372696 197.047V197.059L0.00208282 197.088L0.000988007 197.094V197.103V197.117V226.168C0.000988007 226.525 0.207447 226.832 0.506729 226.979ZM24.8601 214.671C25.3692 215.199 26.016 215.582 26.739 215.758V240.504L3.20915 226.384L24.2114 213.781C24.3887 214.107 24.6067 214.407 24.8601 214.671ZM53.4779 198.817L53.4782 198.817H53.4779V198.817ZM53.4779 198.817L32.0875 211.394C32.0944 211.492 32.0979 211.592 32.0979 211.692L32.0925 211.895L53.4779 224.47V198.817ZM23.5257 211.881L23.5212 211.692C23.5212 211.597 23.5247 211.502 23.5308 211.409L2.14006 198.817V224.47L23.5255 211.881L23.5257 211.881ZM24.8566 209.764C24.6245 210.006 24.4193 210.278 24.2511 210.574L3.20915 197.959L26.739 183.852V208.674C26.016 208.849 25.3676 209.234 24.8566 209.764ZM28.8781 207.61C29.6117 207.782 30.2691 208.169 30.7833 208.703C31.0139 208.943 31.2161 209.213 31.3846 209.506L52.4079 196.896L28.8781 182.783V207.61ZM30.7868 214.655C31.0357 214.395 31.2513 214.102 31.4256 213.781L52.4079 226.378L28.8781 240.504V215.752C29.6117 215.58 30.2696 215.192 30.7868 214.655ZM26.2943 213.157C26.681 213.543 27.2172 213.781 27.8088 213.781C28.4004 213.781 28.9369 213.542 29.3233 213.157C29.7092 212.77 29.948 212.235 29.948 211.643C29.948 211.052 29.7084 210.516 29.3233 210.13C28.9366 209.745 28.4004 209.506 27.8088 209.506C27.2172 209.506 26.6807 209.744 26.2943 210.13C25.9094 210.516 25.6699 211.052 25.6699 211.643C25.6699 212.235 25.9087 212.771 26.2943 213.157Z" fill="#E7E7E7" fill-opacity="0.1"/>
<path fill-rule="evenodd" clip-rule="evenodd" d="M53.9813 166.052L80.7774 181.557L80.7766 181.557L80.7782 181.558L80.7837 181.561L80.79 181.566L80.7963 181.57L80.7971 181.57L80.8034 181.575L80.8105 181.58L80.8149 181.581L80.8176 181.583L80.8248 181.588L80.8319 181.593H80.833L80.8385 181.596L80.8456 181.601L80.8519 181.604L80.853 181.604L80.8601 181.608L80.8672 181.613L80.8719 181.614L80.8754 181.616L80.8825 181.62L80.8897 181.623H80.8913L80.8968 181.627L80.9039 181.63L80.9094 181.632L80.911 181.633H80.9121L80.9192 181.637L80.9274 181.64L80.931 181.641L80.9346 181.643L80.9417 181.647L80.9452 181.649L80.9499 181.65L80.9507 181.65L80.9578 181.653L80.965 181.656L80.9713 181.658L80.9729 181.659L80.98 181.661L80.9882 181.664L80.9918 181.665L80.9964 181.667L81.0047 181.67L81.0118 181.672H81.0137L81.02 181.675L81.0282 181.677L81.0345 181.679L81.0364 181.68L81.0446 181.681L81.0529 181.684H81.0564L81.0611 181.686L81.0693 181.688L81.0775 181.69H81.0783L81.0854 181.692L81.0945 181.694L81.1008 181.695H81.1024L81.1106 181.697L81.1188 181.699H81.1224L81.1271 181.7L81.1361 181.702L81.1443 181.703H81.1451L81.1522 181.705L81.1613 181.706L81.1676 181.706H81.1695L81.1785 181.707L81.1821 181.708L81.1903 181.709H81.1958L81.204 181.71L81.213 181.711L81.2213 181.712H81.2303L81.2366 181.713H81.2393H81.2475L81.2566 181.714H81.2593H81.2656H81.2738H81.2829H81.2919H81.3001H81.3064H81.3091L81.3182 181.713H81.3264H81.3291L81.3354 181.712H81.3445L81.3527 181.711L81.3617 181.71L81.3699 181.709H81.3754L81.3836 181.708L81.3872 181.707L81.3962 181.706H81.3981L81.4044 181.706L81.4135 181.705L81.4206 181.703H81.4214L81.4296 181.702L81.4387 181.7L81.4433 181.699H81.4469L81.4551 181.697L81.4633 181.695H81.4652L81.4715 181.694L81.4806 181.692L81.4877 181.69H81.4885L81.4967 181.688L81.5049 181.686L81.5093 181.684H81.5129L81.5211 181.681L81.5293 181.68L81.5312 181.679L81.5375 181.677L81.5457 181.675L81.552 181.672H81.5528L81.5611 181.67L81.5693 181.667L81.5739 181.665L81.5775 181.664L81.5857 181.661L81.5928 181.659L81.5947 181.658L81.601 181.656L81.6082 181.653L81.6153 181.65L81.6161 181.65L81.6197 181.649L81.6243 181.647L81.6314 181.643L81.635 181.641L81.6385 181.64L81.6468 181.637L81.6539 181.633H81.6547L81.6566 181.632L81.6621 181.63L81.6692 181.627L81.6747 181.623H81.6766L81.6837 181.62L81.6908 181.616L81.6944 181.614L81.6991 181.613L81.7062 181.608L81.7133 181.604L81.7141 181.604L81.7204 181.601L81.7275 181.596L81.733 181.593H81.7338L81.741 181.588L81.7481 181.583L81.7508 181.581L81.7555 181.58L81.7626 181.575L81.7689 181.57L81.7697 181.57L81.776 181.566L81.7823 181.561L81.7878 181.558L81.7894 181.557L108.585 166.052C108.843 165.924 109.03 165.679 109.079 165.385L109.081 165.378L109.083 165.356L109.084 165.355L109.085 165.342L109.087 165.333V165.327L109.088 165.313L109.089 165.31V165.298L109.091 165.269L109.091 165.264V165.255V165.24V136.189C109.091 135.832 108.885 135.525 108.586 135.378L81.7897 119.873L81.7881 119.872L81.7826 119.868L81.7763 119.864L81.77 119.86L81.7692 119.86L81.7629 119.855L81.7557 119.851L81.7511 119.849L81.7484 119.847L81.7412 119.842L81.7341 119.839L81.7333 119.838L81.7314 119.837L81.7278 119.834L81.7207 119.831L81.7144 119.827L81.7136 119.826L81.7065 119.823L81.6993 119.819L81.6947 119.816L81.6911 119.815L81.684 119.812L81.6769 119.808L81.675 119.807L81.6695 119.805L81.6624 119.801L81.6553 119.798H81.6544L81.6473 119.794L81.6391 119.791L81.6355 119.789L81.632 119.788L81.6249 119.785L81.6166 119.781L81.6158 119.781L81.6087 119.779L81.6016 119.776L81.5953 119.773L81.5934 119.772L81.5863 119.77L81.578 119.767L81.5745 119.766L81.5698 119.764L81.5616 119.761L81.5534 119.759H81.5526L81.5463 119.757L81.5381 119.754L81.5318 119.752H81.5298L81.5216 119.75L81.5134 119.748L81.5099 119.747L81.5055 119.745L81.4973 119.743L81.489 119.741H81.4882L81.4811 119.739L81.4721 119.738L81.4658 119.736H81.4639L81.4556 119.734L81.4474 119.732H81.4439L81.4392 119.731L81.4302 119.729L81.422 119.728H81.4211L81.414 119.726L81.405 119.726L81.3987 119.725H81.3968L81.3877 119.724L81.3795 119.723L81.376 119.722H81.3705L81.3623 119.721L81.3532 119.72L81.345 119.719H81.336L81.3297 119.718H81.3269H81.3187L81.3097 119.717H81.307H81.3007H81.2924H81.2834H81.2744H81.2662H81.2599H81.2571L81.2481 119.718H81.2399H81.2371L81.2308 119.719H81.2218L81.2136 119.72L81.2045 119.721L81.1963 119.722H81.1909L81.1873 119.723L81.1791 119.724L81.17 119.725H81.1681L81.1618 119.726L81.1528 119.726L81.1457 119.728H81.1449L81.1366 119.729L81.1276 119.731L81.123 119.732H81.1194L81.1112 119.734L81.103 119.736H81.1013L81.095 119.738L81.086 119.739L81.0789 119.741H81.078L81.0698 119.743L81.0616 119.745L81.057 119.747L81.0534 119.748L81.0452 119.75L81.037 119.752H81.0351L81.0288 119.754L81.0205 119.757L81.0142 119.759H81.0123L81.0052 119.761L80.997 119.764L80.9923 119.766L80.9888 119.767L80.9806 119.77L80.9734 119.772L80.9718 119.773L80.9655 119.776L80.9584 119.779L80.9513 119.781L80.9504 119.781L80.9422 119.785L80.9351 119.788L80.9316 119.789L80.928 119.791L80.9198 119.794L80.9127 119.798H80.9116L80.9044 119.801L80.8973 119.805L80.8918 119.807L80.8902 119.808L80.8831 119.812L80.876 119.815L80.8724 119.816L80.8678 119.819L80.8606 119.823L80.8535 119.826L80.8524 119.827L80.8461 119.831L80.839 119.834L80.8354 119.837L80.8338 119.838L80.8327 119.839L80.8256 119.842L80.8185 119.847L80.8157 119.849L80.8113 119.851L80.8042 119.855L80.7979 119.86L80.7971 119.86L80.7908 119.864L80.7845 119.868L80.779 119.872L80.7774 119.873L53.9813 135.378C53.7234 135.505 53.5369 135.751 53.4882 136.044L53.4865 136.052L53.4838 136.073L53.483 136.074L53.4822 136.088L53.4803 136.097V136.102L53.4794 136.117L53.4783 136.12V136.131L53.4767 136.161L53.4756 136.166V136.175V136.189V165.24C53.4756 165.597 53.6821 165.904 53.9813 166.052ZM78.3347 153.744C78.8438 154.271 79.4906 154.655 80.2136 154.83V179.576L56.6838 165.457L77.686 152.854C77.8633 153.18 78.0813 153.479 78.3347 153.744ZM106.953 137.889L106.953 137.889H106.953V137.889ZM106.953 137.889L85.5621 150.466C85.569 150.565 85.5725 150.664 85.5725 150.764L85.5672 150.968L106.953 163.542V137.889ZM77.0003 150.954L76.9958 150.764C76.9958 150.669 76.9993 150.575 77.0054 150.481L55.6147 137.889V163.542L77.0001 150.953L77.0003 150.954ZM78.3312 148.836C78.0991 149.078 77.8939 149.35 77.7257 149.647L56.6838 137.031L80.2136 122.924V147.746C79.4906 147.921 78.8422 148.306 78.3312 148.836ZM82.3527 146.682C83.0863 146.854 83.7437 147.241 84.258 147.775C84.4885 148.015 84.6908 148.285 84.8592 148.578L105.883 135.969L82.3527 121.855V146.682ZM84.2614 153.728C84.5103 153.468 84.7259 153.174 84.9002 152.854L105.883 165.45L82.3527 179.576V154.825C83.0863 154.653 83.7442 154.264 84.2614 153.728ZM79.7689 152.229C80.1556 152.615 80.6918 152.853 81.2834 152.853C81.875 152.853 82.4115 152.614 82.7979 152.229C83.1838 151.843 83.4226 151.307 83.4226 150.716C83.4226 150.124 83.183 149.588 82.7979 149.202C82.4112 148.818 81.875 148.578 81.2834 148.578C80.6918 148.578 80.1554 148.816 79.7689 149.202C79.3841 149.589 79.1445 150.124 79.1445 150.716C79.1445 151.307 79.3833 151.843 79.7689 152.229Z" fill="#E7E7E7" fill-opacity="0.1"/>
<path fill-rule="evenodd" clip-rule="evenodd" d="M0.506729 166.052L27.3028 181.557L27.302 181.557L27.3036 181.558L27.3091 181.561L27.3154 181.566L27.3217 181.57L27.3225 181.57L27.3288 181.575L27.3359 181.58L27.3403 181.581L27.343 181.583L27.3502 181.588L27.3573 181.593H27.3584L27.3638 181.596L27.371 181.601L27.3773 181.604L27.3784 181.604L27.3855 181.608L27.3926 181.613L27.3973 181.614L27.4008 181.616L27.4079 181.62L27.415 181.623H27.4167L27.4222 181.627L27.4293 181.63L27.4348 181.632L27.4364 181.633H27.4375L27.4446 181.637L27.4528 181.64L27.4564 181.641L27.46 181.643L27.4671 181.647L27.4706 181.649L27.4753 181.65L27.4761 181.65L27.4832 181.653L27.4903 181.656L27.4966 181.658L27.4983 181.659L27.5054 181.661L27.5136 181.664L27.5172 181.665L27.5218 181.667L27.5301 181.67L27.5372 181.672H27.5391L27.5454 181.675L27.5536 181.677L27.5599 181.679L27.5618 181.68L27.57 181.681L27.5782 181.684H27.5818L27.5865 181.686L27.5947 181.688L27.6029 181.69H27.6037L27.6108 181.692L27.6199 181.694L27.6262 181.695H27.6278L27.636 181.697L27.6442 181.699H27.6478L27.6524 181.7L27.6615 181.702L27.6697 181.703H27.6705L27.6776 181.705L27.6867 181.706L27.693 181.706H27.6949L27.7039 181.707L27.7075 181.708L27.7157 181.709H27.7212L27.7294 181.71L27.7384 181.711L27.7466 181.712H27.7557L27.762 181.713H27.7647H27.7729L27.782 181.714H27.7847H27.791H27.7992H27.8083H27.8173H27.8255H27.8318H27.8345L27.8436 181.713H27.8518H27.8545L27.8608 181.712H27.8699L27.8781 181.711L27.8871 181.71L27.8953 181.709H27.9008L27.909 181.708L27.9126 181.707L27.9216 181.706H27.9235L27.9298 181.706L27.9389 181.705L27.946 181.703H27.9468L27.955 181.702L27.9641 181.7L27.9687 181.699H27.9723L27.9805 181.697L27.9887 181.695H27.9906L27.9969 181.694L28.0059 181.692L28.0131 181.69H28.0139L28.0221 181.688L28.0303 181.686L28.0347 181.684H28.0383L28.0465 181.681L28.0547 181.68L28.0566 181.679L28.0629 181.677L28.0711 181.675L28.0774 181.672H28.0782L28.0864 181.67L28.0947 181.667L28.0993 181.665L28.1029 181.664L28.1111 181.661L28.1182 181.659L28.1201 181.658L28.1264 181.656L28.1335 181.653L28.1407 181.65L28.1415 181.65L28.145 181.649L28.1497 181.647L28.1568 181.643L28.1604 181.641L28.1639 181.64L28.1722 181.637L28.1793 181.633H28.1801L28.182 181.632L28.1875 181.63L28.1946 181.627L28.2001 181.623H28.202L28.2091 181.62L28.2162 181.616L28.2198 181.614L28.2245 181.613L28.2316 181.608L28.2387 181.604L28.2395 181.604L28.2458 181.601L28.2529 181.596L28.2584 181.593H28.2592L28.2663 181.588L28.2735 181.583L28.2762 181.581L28.2809 181.58L28.288 181.575L28.2943 181.57L28.2951 181.57L28.3014 181.566L28.3077 181.561L28.3132 181.558L28.3148 181.557L55.1109 166.052C55.3688 165.924 55.5553 165.679 55.604 165.385L55.6059 165.378L55.6087 165.356L55.6095 165.355L55.6103 165.342L55.6122 165.333V165.327L55.6133 165.313L55.6141 165.31V165.298L55.6161 165.269L55.6169 165.264V165.255V165.24V136.189C55.6169 135.832 55.4104 135.525 55.1111 135.378L28.3151 119.873L28.3134 119.872L28.308 119.868L28.3017 119.864L28.2954 119.86L28.2945 119.86L28.2883 119.855L28.2811 119.851L28.2765 119.849L28.2737 119.847L28.2666 119.842L28.2595 119.839L28.2587 119.838L28.2568 119.837L28.2532 119.834L28.2461 119.831L28.2398 119.827L28.239 119.826L28.2318 119.823L28.2247 119.819L28.2201 119.816L28.2165 119.815L28.2094 119.812L28.2023 119.808L28.2004 119.807L28.1949 119.805L28.1878 119.801L28.1806 119.798H28.1798L28.1727 119.794L28.1645 119.791L28.1609 119.789L28.1574 119.788L28.1502 119.785L28.142 119.781L28.1412 119.781L28.1341 119.779L28.127 119.776L28.1207 119.773L28.1188 119.772L28.1116 119.77L28.1034 119.767L28.0999 119.766L28.0952 119.764L28.087 119.761L28.0788 119.759H28.078L28.0717 119.757L28.0634 119.754L28.0572 119.752H28.0552L28.047 119.75L28.0388 119.748L28.0352 119.747L28.0309 119.745L28.0226 119.743L28.0144 119.741H28.0136L28.0065 119.739L27.9975 119.738L27.9912 119.736H27.9892L27.981 119.734L27.9728 119.732H27.9693L27.9646 119.731L27.9556 119.729L27.9473 119.728H27.9465L27.9394 119.726L27.9304 119.726L27.9241 119.725H27.9222L27.9131 119.724L27.9049 119.723L27.9013 119.722H27.8959L27.8877 119.721L27.8786 119.72L27.8704 119.719H27.8614L27.8551 119.718H27.8523H27.8441L27.8351 119.717H27.8323H27.826H27.8178H27.8088H27.7998H27.7915H27.7852H27.7825L27.7735 119.718H27.7653H27.7625L27.7562 119.719H27.7472L27.739 119.72L27.7299 119.721L27.7217 119.722H27.7162L27.7127 119.723L27.7045 119.724L27.6954 119.725H27.6935L27.6872 119.726L27.6782 119.726L27.6711 119.728H27.6702L27.662 119.729L27.653 119.731L27.6483 119.732H27.6448L27.6366 119.734L27.6284 119.736H27.6267L27.6204 119.738L27.6114 119.739L27.6043 119.741H27.6034L27.5952 119.743L27.587 119.745L27.5824 119.747L27.5788 119.748L27.5706 119.75L27.5624 119.752H27.5604L27.5541 119.754L27.5459 119.757L27.5396 119.759H27.5377L27.5306 119.761L27.5224 119.764L27.5177 119.766L27.5142 119.767L27.506 119.77L27.4988 119.772L27.4972 119.773L27.4909 119.776L27.4838 119.779L27.4767 119.781L27.4758 119.781L27.4676 119.785L27.4605 119.788L27.4569 119.789L27.4534 119.791L27.4452 119.794L27.438 119.798H27.437L27.4298 119.801L27.4227 119.805L27.4172 119.807L27.4156 119.808L27.4085 119.812L27.4014 119.815L27.3978 119.816L27.3931 119.819L27.386 119.823L27.3789 119.826L27.3778 119.827L27.3715 119.831L27.3644 119.834L27.3608 119.837L27.3592 119.838L27.3581 119.839L27.351 119.842L27.3439 119.847L27.3411 119.849L27.3367 119.851L27.3296 119.855L27.3233 119.86L27.3225 119.86L27.3162 119.864L27.3099 119.868L27.3044 119.872L27.3028 119.873L0.506729 135.378C0.248795 135.505 0.0623245 135.751 0.0135841 136.044L0.01194 136.052L0.00920105 136.073L0.00838089 136.074L0.00756073 136.088L0.00564194 136.097V136.102L0.00482178 136.117L0.00372696 136.12V136.131L0.00208282 136.161L0.000988007 136.166V136.175V136.189V165.24C0.000988007 165.597 0.207447 165.904 0.506729 166.052ZM24.8601 153.744C25.3692 154.271 26.016 154.655 26.739 154.83V179.576L3.20915 165.457L24.2114 152.854C24.3887 153.18 24.6067 153.479 24.8601 153.744ZM53.4779 137.889L53.4782 137.889H53.4779V137.889ZM53.4779 137.889L32.0875 150.466C32.0944 150.565 32.0979 150.664 32.0979 150.764L32.0925 150.968L53.4779 163.542V137.889ZM23.5257 150.954L23.5212 150.764C23.5212 150.669 23.5247 150.575 23.5308 150.481L2.14006 137.889V163.542L23.5255 150.953L23.5257 150.954ZM24.8566 148.836C24.6245 149.078 24.4193 149.35 24.2511 149.647L3.20915 137.031L26.739 122.924V147.746C26.016 147.921 25.3676 148.306 24.8566 148.836ZM28.8781 146.682C29.6117 146.854 30.2691 147.241 30.7833 147.775C31.0139 148.015 31.2161 148.285 31.3846 148.578L52.4079 135.969L28.8781 121.855V146.682ZM30.7868 153.728C31.0357 153.468 31.2513 153.174 31.4256 152.854L52.4079 165.45L28.8781 179.576V154.825C29.6117 154.653 30.2696 154.264 30.7868 153.728ZM26.2943 152.229C26.681 152.615 27.2172 152.853 27.8088 152.853C28.4004 152.853 28.9369 152.614 29.3233 152.229C29.7092 151.843 29.948 151.307 29.948 150.716C29.948 150.124 29.7084 149.588 29.3233 149.202C28.9366 148.818 28.4004 148.578 27.8088 148.578C27.2172 148.578 26.6807 148.816 26.2943 149.202C25.9094 149.589 25.6699 150.124 25.6699 150.716C25.6699 151.307 25.9087 151.843 26.2943 152.229Z" fill="#E7E7E7" fill-opacity="0.1"/>
<path fill-rule="evenodd" clip-rule="evenodd" d="M53.9813 106.193L80.7774 121.698L80.7766 121.698L80.7782 121.699L80.7837 121.703L80.79 121.707L80.7963 121.711L80.7971 121.712L80.8034 121.716L80.8105 121.721L80.8149 121.723L80.8176 121.725L80.8248 121.729L80.8319 121.734H80.833L80.8385 121.738L80.8456 121.742L80.8519 121.745L80.853 121.746L80.8601 121.749L80.8672 121.754L80.8719 121.756L80.8754 121.758L80.8825 121.761L80.8897 121.765H80.8913L80.8968 121.768L80.9039 121.772L80.9094 121.774L80.911 121.775H80.9121L80.9192 121.778L80.9274 121.782L80.931 121.783L80.9346 121.784L80.9417 121.788L80.9452 121.79L80.9499 121.791L80.9507 121.792L80.9578 121.795L80.965 121.797L80.9713 121.799L80.9729 121.8L80.98 121.803L80.9882 121.806L80.9918 121.807L80.9964 121.808L81.0047 121.811L81.0118 121.814H81.0137L81.02 121.817L81.0282 121.818L81.0345 121.82L81.0364 121.821L81.0446 121.823L81.0529 121.826H81.0564L81.0611 121.828L81.0693 121.829L81.0775 121.831H81.0783L81.0854 121.833L81.0945 121.835L81.1008 121.837H81.1024L81.1106 121.838L81.1188 121.84H81.1224L81.1271 121.842L81.1361 121.843L81.1443 121.844H81.1451L81.1522 121.846L81.1613 121.847L81.1676 121.848H81.1695L81.1785 121.849L81.1821 121.85L81.1903 121.851H81.1958L81.204 121.852L81.213 121.852L81.2213 121.853H81.2303L81.2366 121.854H81.2393H81.2475L81.2566 121.855H81.2593H81.2656H81.2738H81.2829H81.2919H81.3001H81.3064H81.3091L81.3182 121.854H81.3264H81.3291L81.3354 121.853H81.3445L81.3527 121.852L81.3617 121.852L81.3699 121.851H81.3754L81.3836 121.85L81.3872 121.849L81.3962 121.848H81.3981L81.4044 121.847L81.4135 121.846L81.4206 121.844H81.4214L81.4296 121.843L81.4387 121.842L81.4433 121.84H81.4469L81.4551 121.838L81.4633 121.837H81.4652L81.4715 121.835L81.4806 121.833L81.4877 121.831H81.4885L81.4967 121.829L81.5049 121.828L81.5093 121.826H81.5129L81.5211 121.823L81.5293 121.821L81.5312 121.82L81.5375 121.818L81.5457 121.817L81.552 121.814H81.5528L81.5611 121.811L81.5693 121.808L81.5739 121.807L81.5775 121.806L81.5857 121.803L81.5928 121.8L81.5947 121.799L81.601 121.797L81.6082 121.795L81.6153 121.792L81.6161 121.791L81.6197 121.79L81.6243 121.788L81.6314 121.784L81.635 121.783L81.6385 121.782L81.6468 121.778L81.6539 121.775H81.6547L81.6566 121.774L81.6621 121.772L81.6692 121.768L81.6747 121.765H81.6766L81.6837 121.761L81.6908 121.758L81.6944 121.756L81.6991 121.754L81.7062 121.749L81.7133 121.746L81.7141 121.745L81.7204 121.742L81.7275 121.738L81.733 121.734H81.7338L81.741 121.729L81.7481 121.725L81.7508 121.723L81.7555 121.721L81.7626 121.716L81.7689 121.712L81.7697 121.711L81.776 121.707L81.7823 121.703L81.7878 121.699L81.7894 121.698L108.585 106.193C108.843 106.066 109.03 105.82 109.079 105.526L109.081 105.519L109.083 105.498L109.084 105.497L109.085 105.483L109.087 105.474V105.469L109.088 105.454L109.089 105.451V105.439L109.091 105.41L109.091 105.405V105.396V105.381V76.3305C109.091 75.9735 108.885 75.6664 108.586 75.519L81.7897 60.0141L81.7881 60.0133L81.7826 60.0097L81.7763 60.0053L81.77 60.0017L81.7692 60.0009L81.7629 59.9962L81.7557 59.9927L81.7511 59.9899L81.7484 59.9883L81.7412 59.9836L81.7341 59.98L81.7333 59.9792L81.7314 59.9784L81.7278 59.9757L81.7207 59.9721L81.7144 59.9685L81.7136 59.9674L81.7065 59.9639L81.6993 59.9603L81.6947 59.9575L81.6911 59.9567L81.684 59.9532L81.6769 59.9496L81.675 59.9488L81.6695 59.946L81.6624 59.9425L81.6553 59.9389H81.6544L81.6473 59.9353L81.6391 59.9326L81.6355 59.9307L81.632 59.929L81.6249 59.9263L81.6166 59.9227L81.6158 59.9219L81.6087 59.92L81.6016 59.9172L81.5953 59.9145L81.5934 59.9136L81.5863 59.9109L81.578 59.9082L81.5745 59.9073L81.5698 59.9054L81.5616 59.9027L81.5534 59.8999H81.5526L81.5463 59.898L81.5381 59.8953L81.5318 59.8936H81.5298L81.5216 59.8909L81.5134 59.8892L81.5099 59.8881L81.5055 59.8865L81.4973 59.8846L81.489 59.8826H81.4882L81.4811 59.8807L81.4721 59.8791L81.4658 59.8771H81.4639L81.4556 59.8752L81.4474 59.8736H81.4439L81.4392 59.8725L81.4302 59.8706L81.422 59.8697H81.4211L81.414 59.8678L81.405 59.867L81.3987 59.8662H81.3968L81.3877 59.8651L81.3795 59.8642L81.376 59.8634H81.3705L81.3623 59.8623L81.3532 59.8615L81.345 59.8604H81.336L81.3297 59.8596H81.3269H81.3187L81.3097 59.8588H81.307H81.3007H81.2924H81.2834H81.2744H81.2662H81.2599H81.2571L81.2481 59.8596H81.2399H81.2371L81.2308 59.8604H81.2218L81.2136 59.8615L81.2045 59.8623L81.1963 59.8634H81.1909L81.1873 59.8642L81.1791 59.8651L81.17 59.8662H81.1681L81.1618 59.867L81.1528 59.8678L81.1457 59.8697H81.1449L81.1366 59.8706L81.1276 59.8725L81.123 59.8736H81.1194L81.1112 59.8752L81.103 59.8771H81.1013L81.095 59.8791L81.086 59.8807L81.0789 59.8826H81.078L81.0698 59.8846L81.0616 59.8865L81.057 59.8881L81.0534 59.8892L81.0452 59.8909L81.037 59.8936H81.0351L81.0288 59.8953L81.0205 59.898L81.0142 59.8999H81.0123L81.0052 59.9027L80.997 59.9054L80.9923 59.9073L80.9888 59.9082L80.9806 59.9109L80.9734 59.9136L80.9718 59.9145L80.9655 59.9172L80.9584 59.92L80.9513 59.9219L80.9504 59.9227L80.9422 59.9263L80.9351 59.929L80.9316 59.9307L80.928 59.9326L80.9198 59.9353L80.9127 59.9389H80.9116L80.9044 59.9425L80.8973 59.946L80.8918 59.9488L80.8902 59.9496L80.8831 59.9532L80.876 59.9567L80.8724 59.9575L80.8678 59.9603L80.8606 59.9639L80.8535 59.9674L80.8524 59.9685L80.8461 59.9721L80.839 59.9757L80.8354 59.9784L80.8338 59.9792L80.8327 59.98L80.8256 59.9836L80.8185 59.9883L80.8157 59.9899L80.8113 59.9927L80.8042 59.9962L80.7979 60.0009L80.7971 60.0017L80.7908 60.0053L80.7845 60.0097L80.779 60.0133L80.7774 60.0141L53.9813 75.519C53.7234 75.6464 53.5369 75.8922 53.4882 76.1859L53.4865 76.193L53.4838 76.2147L53.483 76.2155L53.4822 76.2292L53.4803 76.2383V76.2438L53.4794 76.2583L53.4783 76.261V76.2728L53.4767 76.3019L53.4756 76.3074V76.3165V76.3307V105.382C53.4756 105.739 53.6821 106.046 53.9813 106.193ZM78.3347 93.8849C78.8438 94.4122 79.4906 94.7959 80.2136 94.9715V119.718L56.6838 105.598L77.686 92.9949C77.8633 93.3211 78.0813 93.6207 78.3347 93.8849ZM106.953 78.0303L106.953 78.0301H106.953V78.0303ZM106.953 78.0303L85.5621 90.6076C85.569 90.7059 85.5725 90.8053 85.5725 90.9052L85.5672 91.1091L106.953 103.684V78.0303ZM77.0003 91.095L76.9958 90.9055C76.9958 90.8107 76.9993 90.7159 77.0054 90.6228L55.6147 78.0301V103.684L77.0001 91.0947L77.0003 91.095ZM78.3312 88.9771C78.0991 89.2193 77.8939 89.4912 77.7257 89.7881L56.6838 77.1725L80.2136 63.0655V87.8879C79.4906 88.0625 78.8422 88.4476 78.3312 88.9771ZM82.3527 86.8237C83.0863 86.9957 83.7437 87.3828 84.258 87.9162C84.4885 88.1565 84.6908 88.4261 84.8592 88.7192L105.883 76.1099L82.3527 61.9966V86.8237ZM84.2614 93.869C84.5103 93.6091 84.7259 93.3157 84.9002 92.9949L105.883 105.591L82.3527 119.718V94.9661C83.0863 94.794 83.7442 94.4056 84.2614 93.869ZM79.7689 92.3705C80.1556 92.7562 80.6918 92.9948 81.2834 92.9948C81.875 92.9948 82.4115 92.7554 82.7979 92.3705C83.1838 91.984 83.4226 91.4482 83.4226 90.857C83.4226 90.2658 83.183 89.7297 82.7979 89.3435C82.4112 88.9589 81.875 88.7192 81.2834 88.7192C80.6918 88.7192 80.1554 88.9578 79.7689 89.3435C79.3841 89.7299 79.1445 90.2658 79.1445 90.857C79.1445 91.4482 79.3833 91.9843 79.7689 92.3705Z" fill="#E7E7E7" fill-opacity="0.1"/>
<path fill-rule="evenodd" clip-rule="evenodd" d="M0.506729 106.193L27.3028 121.698L27.302 121.698L27.3036 121.699L27.3091 121.703L27.3154 121.707L27.3217 121.711L27.3225 121.712L27.3288 121.716L27.3359 121.721L27.3403 121.723L27.343 121.725L27.3502 121.729L27.3573 121.734H27.3584L27.3638 121.738L27.371 121.742L27.3773 121.745L27.3784 121.746L27.3855 121.749L27.3926 121.754L27.3973 121.756L27.4008 121.758L27.4079 121.761L27.415 121.765H27.4167L27.4222 121.768L27.4293 121.772L27.4348 121.774L27.4364 121.775H27.4375L27.4446 121.778L27.4528 121.782L27.4564 121.783L27.46 121.784L27.4671 121.788L27.4706 121.79L27.4753 121.791L27.4761 121.792L27.4832 121.795L27.4903 121.797L27.4966 121.799L27.4983 121.8L27.5054 121.803L27.5136 121.806L27.5172 121.807L27.5218 121.808L27.5301 121.811L27.5372 121.814H27.5391L27.5454 121.817L27.5536 121.818L27.5599 121.82L27.5618 121.821L27.57 121.823L27.5782 121.826H27.5818L27.5865 121.828L27.5947 121.829L27.6029 121.831H27.6037L27.6108 121.833L27.6199 121.835L27.6262 121.837H27.6278L27.636 121.838L27.6442 121.84H27.6478L27.6524 121.842L27.6615 121.843L27.6697 121.844H27.6705L27.6776 121.846L27.6867 121.847L27.693 121.848H27.6949L27.7039 121.849L27.7075 121.85L27.7157 121.851H27.7212L27.7294 121.852L27.7384 121.852L27.7466 121.853H27.7557L27.762 121.854H27.7647H27.7729L27.782 121.855H27.7847H27.791H27.7992H27.8083H27.8173H27.8255H27.8318H27.8345L27.8436 121.854H27.8518H27.8545L27.8608 121.853H27.8699L27.8781 121.852L27.8871 121.852L27.8953 121.851H27.9008L27.909 121.85L27.9126 121.849L27.9216 121.848H27.9235L27.9298 121.847L27.9389 121.846L27.946 121.844H27.9468L27.955 121.843L27.9641 121.842L27.9687 121.84H27.9723L27.9805 121.838L27.9887 121.837H27.9906L27.9969 121.835L28.0059 121.833L28.0131 121.831H28.0139L28.0221 121.829L28.0303 121.828L28.0347 121.826H28.0383L28.0465 121.823L28.0547 121.821L28.0566 121.82L28.0629 121.818L28.0711 121.817L28.0774 121.814H28.0782L28.0864 121.811L28.0947 121.808L28.0993 121.807L28.1029 121.806L28.1111 121.803L28.1182 121.8L28.1201 121.799L28.1264 121.797L28.1335 121.795L28.1407 121.792L28.1415 121.791L28.145 121.79L28.1497 121.788L28.1568 121.784L28.1604 121.783L28.1639 121.782L28.1722 121.778L28.1793 121.775H28.1801L28.182 121.774L28.1875 121.772L28.1946 121.768L28.2001 121.765H28.202L28.2091 121.761L28.2162 121.758L28.2198 121.756L28.2245 121.754L28.2316 121.749L28.2387 121.746L28.2395 121.745L28.2458 121.742L28.2529 121.738L28.2584 121.734H28.2592L28.2663 121.729L28.2735 121.725L28.2762 121.723L28.2809 121.721L28.288 121.716L28.2943 121.712L28.2951 121.711L28.3014 121.707L28.3077 121.703L28.3132 121.699L28.3148 121.698L55.1109 106.193C55.3688 106.066 55.5553 105.82 55.604 105.526L55.6059 105.519L55.6087 105.498L55.6095 105.497L55.6103 105.483L55.6122 105.474V105.469L55.6133 105.454L55.6141 105.451V105.439L55.6161 105.41L55.6169 105.405V105.396V105.381V76.3305C55.6169 75.9735 55.4104 75.6664 55.1111 75.519L28.3151 60.0141L28.3134 60.0133L28.308 60.0097L28.3017 60.0053L28.2954 60.0017L28.2945 60.0009L28.2883 59.9962L28.2811 59.9927L28.2765 59.9899L28.2737 59.9883L28.2666 59.9836L28.2595 59.98L28.2587 59.9792L28.2568 59.9784L28.2532 59.9757L28.2461 59.9721L28.2398 59.9685L28.239 59.9674L28.2318 59.9639L28.2247 59.9603L28.2201 59.9575L28.2165 59.9567L28.2094 59.9532L28.2023 59.9496L28.2004 59.9488L28.1949 59.946L28.1878 59.9425L28.1806 59.9389H28.1798L28.1727 59.9353L28.1645 59.9326L28.1609 59.9307L28.1574 59.929L28.1502 59.9263L28.142 59.9227L28.1412 59.9219L28.1341 59.92L28.127 59.9172L28.1207 59.9145L28.1188 59.9136L28.1116 59.9109L28.1034 59.9082L28.0999 59.9073L28.0952 59.9054L28.087 59.9027L28.0788 59.8999H28.078L28.0717 59.898L28.0634 59.8953L28.0572 59.8936H28.0552L28.047 59.8909L28.0388 59.8892L28.0352 59.8881L28.0309 59.8865L28.0226 59.8846L28.0144 59.8826H28.0136L28.0065 59.8807L27.9975 59.8791L27.9912 59.8771H27.9892L27.981 59.8752L27.9728 59.8736H27.9693L27.9646 59.8725L27.9556 59.8706L27.9473 59.8697H27.9465L27.9394 59.8678L27.9304 59.867L27.9241 59.8662H27.9222L27.9131 59.8651L27.9049 59.8642L27.9013 59.8634H27.8959L27.8877 59.8623L27.8786 59.8615L27.8704 59.8604H27.8614L27.8551 59.8596H27.8523H27.8441L27.8351 59.8588H27.8323H27.826H27.8178H27.8088H27.7998H27.7915H27.7852H27.7825L27.7735 59.8596H27.7653H27.7625L27.7562 59.8604H27.7472L27.739 59.8615L27.7299 59.8623L27.7217 59.8634H27.7162L27.7127 59.8642L27.7045 59.8651L27.6954 59.8662H27.6935L27.6872 59.867L27.6782 59.8678L27.6711 59.8697H27.6702L27.662 59.8706L27.653 59.8725L27.6483 59.8736H27.6448L27.6366 59.8752L27.6284 59.8771H27.6267L27.6204 59.8791L27.6114 59.8807L27.6043 59.8826H27.6034L27.5952 59.8846L27.587 59.8865L27.5824 59.8881L27.5788 59.8892L27.5706 59.8909L27.5624 59.8936H27.5604L27.5541 59.8953L27.5459 59.898L27.5396 59.8999H27.5377L27.5306 59.9027L27.5224 59.9054L27.5177 59.9073L27.5142 59.9082L27.506 59.9109L27.4988 59.9136L27.4972 59.9145L27.4909 59.9172L27.4838 59.92L27.4767 59.9219L27.4758 59.9227L27.4676 59.9263L27.4605 59.929L27.4569 59.9307L27.4534 59.9326L27.4452 59.9353L27.438 59.9389H27.437L27.4298 59.9425L27.4227 59.946L27.4172 59.9488L27.4156 59.9496L27.4085 59.9532L27.4014 59.9567L27.3978 59.9575L27.3931 59.9603L27.386 59.9639L27.3789 59.9674L27.3778 59.9685L27.3715 59.9721L27.3644 59.9757L27.3608 59.9784L27.3592 59.9792L27.3581 59.98L27.351 59.9836L27.3439 59.9883L27.3411 59.9899L27.3367 59.9927L27.3296 59.9962L27.3233 60.0009L27.3225 60.0017L27.3162 60.0053L27.3099 60.0097L27.3044 60.0133L27.3028 60.0141L0.506729 75.519C0.248795 75.6464 0.0623245 75.8922 0.0135841 76.1859L0.01194 76.193L0.00920105 76.2147L0.00838089 76.2155L0.00756073 76.2292L0.00564194 76.2383V76.2438L0.00482178 76.2583L0.00372696 76.261V76.2728L0.00208282 76.3019L0.000988007 76.3074V76.3165V76.3307V105.382C0.000988007 105.739 0.207447 106.046 0.506729 106.193ZM24.8601 93.8849C25.3692 94.4122 26.016 94.7959 26.739 94.9715V119.718L3.20915 105.598L24.2114 92.9949C24.3887 93.3211 24.6067 93.6207 24.8601 93.8849ZM53.4779 78.0303L53.4782 78.0301H53.4779V78.0303ZM53.4779 78.0303L32.0875 90.6076C32.0944 90.7059 32.0979 90.8053 32.0979 90.9052L32.0925 91.1091L53.4779 103.684V78.0303ZM23.5257 91.095L23.5212 90.9055C23.5212 90.8107 23.5247 90.7159 23.5308 90.6228L2.14006 78.0301V103.684L23.5255 91.0947L23.5257 91.095ZM24.8566 88.9771C24.6245 89.2193 24.4193 89.4912 24.2511 89.7881L3.20915 77.1725L26.739 63.0655V87.8879C26.016 88.0625 25.3676 88.4476 24.8566 88.9771ZM28.8781 86.8237C29.6117 86.9957 30.2691 87.3828 30.7833 87.9162C31.0139 88.1565 31.2161 88.4261 31.3846 88.7192L52.4079 76.1099L28.8781 61.9966V86.8237ZM30.7868 93.869C31.0357 93.6091 31.2513 93.3157 31.4256 92.9949L52.4079 105.591L28.8781 119.718V94.9661C29.6117 94.794 30.2696 94.4056 30.7868 93.869ZM26.2943 92.3705C26.681 92.7562 27.2172 92.9948 27.8088 92.9948C28.4004 92.9948 28.9369 92.7554 29.3233 92.3705C29.7092 91.984 29.948 91.4482 29.948 90.857C29.948 90.2658 29.7084 89.7297 29.3233 89.3435C28.9366 88.9589 28.4004 88.7192 27.8088 88.7192C27.2172 88.7192 26.6807 88.9578 26.2943 89.3435C25.9094 89.7299 25.6699 90.2658 25.6699 90.857C25.6699 91.4482 25.9087 91.9843 26.2943 92.3705Z" fill="#E7E7E7" fill-opacity="0.1"/>
<path fill-rule="evenodd" clip-rule="evenodd" d="M53.9813 46.3344L80.7774 61.8393L80.7766 61.8396L80.7782 61.8404L80.7837 61.844L80.79 61.8487L80.7963 61.8522L80.7971 61.8531L80.8034 61.8577L80.8105 61.8624L80.8149 61.864L80.8176 61.866L80.8248 61.8706L80.8319 61.8753H80.833L80.8385 61.8789L80.8456 61.8835L80.8519 61.8863L80.853 61.8871L80.8601 61.8907L80.8672 61.8953L80.8719 61.897L80.8754 61.8989L80.8825 61.9025L80.8897 61.906H80.8913L80.8968 61.9096L80.9039 61.9132L80.9094 61.9151L80.911 61.9159H80.9121L80.9192 61.9195L80.9274 61.923L80.931 61.9239L80.9346 61.9258L80.9417 61.9294L80.9452 61.9313L80.9499 61.9324L80.9507 61.9332L80.9578 61.9359L80.965 61.9387L80.9713 61.9406L80.9729 61.9414L80.98 61.9442L80.9882 61.9469L80.9918 61.948L80.9964 61.9497L81.0047 61.9524L81.0118 61.9551H81.0137L81.02 61.9579L81.0282 61.9595L81.0345 61.9615L81.0364 61.9626L81.0446 61.9642L81.0529 61.9669H81.0564L81.0611 61.9689L81.0693 61.9708L81.0775 61.9727H81.0783L81.0854 61.9744L81.0945 61.9763L81.1008 61.9782H81.1024L81.1106 61.9798L81.1188 61.9818H81.1224L81.1271 61.9829L81.1361 61.9845L81.1443 61.9856H81.1451L81.1522 61.9873L81.1613 61.9883L81.1676 61.9892H81.1695L81.1785 61.99L81.1821 61.9911L81.1903 61.9919H81.1958L81.204 61.993L81.213 61.9938L81.2213 61.9947H81.2303L81.2366 61.9958H81.2393H81.2475L81.2566 61.9966H81.2593H81.2656H81.2738H81.2829H81.2919H81.3001H81.3064H81.3091L81.3182 61.9958H81.3264H81.3291L81.3354 61.9947H81.3445L81.3527 61.9938L81.3617 61.993L81.3699 61.9919H81.3754L81.3836 61.9911L81.3872 61.99L81.3962 61.9892H81.3981L81.4044 61.9883L81.4135 61.9873L81.4206 61.9856H81.4214L81.4296 61.9845L81.4387 61.9829L81.4433 61.9818H81.4469L81.4551 61.9798L81.4633 61.9782H81.4652L81.4715 61.9763L81.4806 61.9744L81.4877 61.9727H81.4885L81.4967 61.9708L81.5049 61.9689L81.5093 61.9669H81.5129L81.5211 61.9642L81.5293 61.9626L81.5312 61.9615L81.5375 61.9595L81.5457 61.9579L81.552 61.9551H81.5528L81.5611 61.9524L81.5693 61.9497L81.5739 61.948L81.5775 61.9469L81.5857 61.9442L81.5928 61.9414L81.5947 61.9406L81.601 61.9387L81.6082 61.9359L81.6153 61.9332L81.6161 61.9324L81.6197 61.9313L81.6243 61.9294L81.6314 61.9258L81.635 61.9239L81.6385 61.923L81.6468 61.9195L81.6539 61.9159H81.6547L81.6566 61.9151L81.6621 61.9132L81.6692 61.9096L81.6747 61.906H81.6766L81.6837 61.9025L81.6908 61.8989L81.6944 61.897L81.6991 61.8953L81.7062 61.8907L81.7133 61.8871L81.7141 61.8863L81.7204 61.8835L81.7275 61.8789L81.733 61.8753H81.7338L81.741 61.8706L81.7481 61.866L81.7508 61.864L81.7555 61.8624L81.7626 61.8577L81.7689 61.8531L81.7697 61.8522L81.776 61.8487L81.7823 61.844L81.7878 61.8404L81.7894 61.8396L108.585 46.3347C108.843 46.2071 109.03 45.9615 109.079 45.6678L109.081 45.6607L109.083 45.639L109.084 45.6382L109.085 45.6245L109.087 45.6154V45.6099L109.088 45.5954L109.089 45.5927V45.5809L109.091 45.5518L109.091 45.5463V45.5372V45.5227V16.4718C109.091 16.1148 108.885 15.8077 108.586 15.6604L81.7897 0.155434L81.7881 0.15461L81.7826 0.151043L81.7763 0.146652L81.77 0.143085L81.7692 0.142262L81.7629 0.137596L81.7557 0.134029L81.7511 0.131287L81.7484 0.129639L81.7412 0.124973L81.7341 0.121407L81.7333 0.120583L81.7314 0.119759L81.7278 0.117016L81.7207 0.113449L81.7144 0.109882L81.7136 0.108784L81.7065 0.105217L81.6993 0.10165L81.6947 0.0989037L81.6911 0.0980797L81.684 0.0945129L81.6769 0.0909462L81.675 0.0901222L81.6695 0.0873795L81.6624 0.0838127L81.6553 0.080246H81.6544L81.6473 0.0766754L81.6391 0.0739326L81.6355 0.0720139L81.632 0.0703659L81.6249 0.0676231L81.6166 0.0640526L81.6158 0.0632324L81.6087 0.0613098L81.6016 0.058567L81.5953 0.0558205L81.5934 0.0550003L81.5863 0.0522537L81.578 0.049511L81.5745 0.048687L81.5698 0.0467644L81.5616 0.0440216L81.5534 0.0412788H81.5526L81.5463 0.0393562L81.5381 0.0366135L81.5318 0.0349655H81.5298L81.5216 0.0322227L81.5134 0.0305748L81.5099 0.0294762L81.5055 0.027832L81.4973 0.0259094L81.489 0.0239906H81.4882L81.4811 0.022068L81.4721 0.0204239L81.4658 0.0185013H81.4639L81.4556 0.0165787L81.4474 0.0149345H81.4439L81.4392 0.0138359L81.4302 0.0119171L81.422 0.0110931H81.4211L81.414 0.00917053L81.405 0.00834656L81.3987 0.0075264H81.3968L81.3877 0.00642776L81.3795 0.00560379L81.376 0.00477982H81.3705L81.3623 0.00368118L81.3532 0.00286102L81.345 0.00176239H81.336L81.3297 0.000938416H81.3269H81.3187L81.3097 0.000114441H81.307H81.3007H81.2924H81.2834H81.2744H81.2662H81.2599H81.2571L81.2481 0.000938416H81.2399H81.2371L81.2308 0.00176239H81.2218L81.2136 0.00286102L81.2045 0.00368118L81.1963 0.00477982H81.1909L81.1873 0.00560379L81.1791 0.00642776L81.17 0.0075264H81.1681L81.1618 0.00834656L81.1528 0.00917053L81.1457 0.0110931H81.1449L81.1366 0.0119171L81.1276 0.0138359L81.123 0.0149345H81.1194L81.1112 0.0165787L81.103 0.0185013H81.1013L81.095 0.0204239L81.086 0.022068L81.0789 0.0239906H81.078L81.0698 0.0259094L81.0616 0.027832L81.057 0.0294762L81.0534 0.0305748L81.0452 0.0322227L81.037 0.0349655H81.0351L81.0288 0.0366135L81.0205 0.0393562L81.0142 0.0412788H81.0123L81.0052 0.0440216L80.997 0.0467644L80.9923 0.048687L80.9888 0.049511L80.9806 0.0522537L80.9734 0.0550003L80.9718 0.0558205L80.9655 0.058567L80.9584 0.0613098L80.9513 0.0632324L80.9504 0.0640526L80.9422 0.0676231L80.9351 0.0703659L80.9316 0.0720139L80.928 0.0739326L80.9198 0.0766754L80.9127 0.080246H80.9116L80.9044 0.0838127L80.8973 0.0873795L80.8918 0.0901222L80.8902 0.0909462L80.8831 0.0945129L80.876 0.0980797L80.8724 0.0989037L80.8678 0.10165L80.8606 0.105217L80.8535 0.108784L80.8524 0.109882L80.8461 0.113449L80.839 0.117016L80.8354 0.119759L80.8338 0.120583L80.8327 0.121407L80.8256 0.124973L80.8185 0.129639L80.8157 0.131287L80.8113 0.134029L80.8042 0.137596L80.7979 0.142262L80.7971 0.143085L80.7908 0.146652L80.7845 0.151043L80.779 0.15461L80.7774 0.155434L53.9813 15.6604C53.7234 15.7877 53.5369 16.0336 53.4882 16.3272L53.4865 16.3343L53.4838 16.356L53.483 16.3568L53.4822 16.3706L53.4803 16.3796V16.3851L53.4794 16.3997L53.4783 16.4024V16.4142L53.4767 16.4433L53.4756 16.4488V16.4578V16.4721V45.523C53.4756 45.88 53.6821 46.187 53.9813 46.3344ZM78.3347 34.0262C78.8438 34.5535 79.4906 34.9372 80.2136 35.1129V59.8589L56.6838 45.7393L77.686 33.1363C77.8633 33.4624 78.0813 33.762 78.3347 34.0262ZM106.953 18.1716L106.953 18.1715H106.953V18.1716ZM106.953 18.1716L85.5621 30.7489C85.569 30.8472 85.5725 30.9466 85.5725 31.0465L85.5672 31.2505L106.953 43.8252V18.1716ZM77.0003 31.2363L76.9958 31.0468C76.9958 30.9521 76.9993 30.8573 77.0054 30.7642L55.6147 18.1715V43.8252L77.0001 31.2361L77.0003 31.2363ZM78.3312 29.1185C78.0991 29.3606 77.8939 29.6326 77.7257 29.9294L56.6838 17.3139L80.2136 3.20683V28.0292C79.4906 28.2039 78.8422 28.5889 78.3312 29.1185ZM82.3527 26.965C83.0863 27.137 83.7437 27.5242 84.258 28.0576C84.4885 28.2979 84.6908 28.5675 84.8592 28.8606L105.883 16.2513L82.3527 2.13798V26.965ZM84.2614 34.0103C84.5103 33.7504 84.7259 33.4571 84.9002 33.1363L105.883 45.7326L82.3527 59.8589V35.1075C83.0863 34.9353 83.7442 34.547 84.2614 34.0103ZM79.7689 32.5119C80.1556 32.8975 80.6918 33.1362 81.2834 33.1362C81.875 33.1362 82.4115 32.8967 82.7979 32.5119C83.1838 32.1254 83.4226 31.5896 83.4226 30.9983C83.4226 30.4071 83.183 29.871 82.7979 29.4848C82.4112 29.1002 81.875 28.8605 81.2834 28.8605C80.6918 28.8605 80.1554 29.0992 79.7689 29.4848C79.3841 29.8713 79.1445 30.4071 79.1445 30.9983C79.1445 31.5896 79.3833 32.1257 79.7689 32.5119Z" fill="#E7E7E7" fill-opacity="0.1"/>
</svg>
