<svg width="24" height="24" viewBox="0 0 24 24" fill="none" xmlns="http://www.w3.org/2000/svg">
<g clip-path="url(#clip0_122_7868)">
<path d="M17.6122 8.36506L12.1083 3.59501C12.0349 3.52163 11.8882 3.44824 11.7414 3.44824C11.5946 3.44824 11.4478 3.52163 11.3745 3.59501L5.87055 8.36506C5.72378 8.43845 5.72378 8.58522 5.65039 8.73199C5.65039 8.87876 5.72378 9.02553 5.79716 9.1723C5.87055 9.31908 6.01732 9.31908 6.16409 9.39246C6.31086 9.39246 6.45763 9.31908 6.6044 9.24569L7.26487 8.65861V13.3553C7.26487 13.502 7.33826 13.6488 7.41164 13.7222C7.48503 13.7956 7.6318 13.869 7.77857 13.869H11.2277V11.3005H12.2551V13.869H15.7042C15.851 13.869 15.9977 13.7956 16.0711 13.7222C16.1445 13.6488 16.2179 13.502 16.2179 13.3553V8.65861L16.8784 9.24569C16.9517 9.31908 17.0985 9.39246 17.2453 9.39246C17.3921 9.39246 17.4654 9.39246 17.5388 9.31908C17.6122 9.24569 17.6856 9.1723 17.759 9.02553C17.8324 8.95215 17.8324 8.80538 17.759 8.65861C17.759 8.51184 17.6856 8.43845 17.6122 8.36506ZM15.1171 12.7682H13.3559V10.7868C13.3559 10.64 13.2825 10.4932 13.2091 10.4199C13.1357 10.3465 12.9889 10.2731 12.8422 10.2731H10.714C10.5672 10.2731 10.4204 10.3465 10.3471 10.4199C10.2737 10.4932 10.2003 10.64 10.2003 10.7868V12.7682H8.43904V7.63121L11.8148 4.69579L15.1905 7.63121L15.1171 12.7682Z" fill="url(#paint0_linear_122_7868)"/>
<path d="M19.7395 0.733887H3.74148C3.00763 0.733887 2.34716 1.02743 1.83346 1.46774C1.31977 1.98144 1.09961 2.64191 1.09961 3.30238V14.457C1.09961 15.1174 1.39315 15.8513 1.83346 16.2916C2.34716 16.8053 3.00763 17.0254 3.6681 17.0254H5.50273V21.9423C5.50273 22.089 5.57612 22.2358 5.64951 22.3092C5.72289 22.3826 5.86966 22.5294 5.94305 22.5294C6.01643 22.7495 6.08982 22.7495 6.1632 22.7495C6.23659 22.7495 6.38336 22.7495 6.45675 22.6761C6.53013 22.6027 6.60352 22.6027 6.6769 22.5294L11.3002 17.1722L12.401 15.8513H10.7131L6.97044 20.1076L6.75029 20.3278V15.8513H3.74148C3.37456 15.8513 3.08102 15.7045 2.78747 15.4844C2.56732 15.2642 2.42055 14.8973 2.42055 14.5303V3.37576C2.42055 3.00883 2.56732 2.71529 2.78747 2.42175C3.00763 2.2016 3.37456 2.05482 3.74148 2.05482H19.8129C20.1798 2.05482 20.4734 2.2016 20.7669 2.42175C20.9871 2.64191 21.1338 3.00883 21.1338 3.37576V14.5303C21.1338 14.8973 20.9871 15.1908 20.7669 15.4844C20.5467 15.7045 20.1798 15.8513 19.8129 15.8513H14.309L13.2082 17.1722H19.8129C20.4734 17.1722 21.2072 16.8787 21.6475 16.4384C22.1612 15.9247 22.3814 15.2642 22.3814 14.6037V3.37576C22.3814 3.00883 22.308 2.71529 22.1612 2.34837C22.0145 2.05482 21.8677 1.76128 21.6475 1.46774C21.4274 1.24758 21.1338 1.02743 20.7669 0.880658C20.4734 0.807272 20.1064 0.733887 19.7395 0.733887Z" fill="url(#paint1_linear_122_7868)"/>
</g>
<defs>
<linearGradient id="paint0_linear_122_7868" x1="5.65039" y1="8.65861" x2="17.814" y2="8.65861" gradientUnits="userSpaceOnUse">
<stop stop-color="#434343"/>
<stop offset="1"/>
</linearGradient>
<linearGradient id="paint1_linear_122_7868" x1="1.09961" y1="11.7417" x2="22.3814" y2="11.7417" gradientUnits="userSpaceOnUse">
<stop stop-color="#434343"/>
<stop offset="1"/>
</linearGradient>
<clipPath id="clip0_122_7868">
<rect width="23.4833" height="23.4833" fill="white"/>
</clipPath>
</defs>
</svg>
