<svg width="24" height="24" viewBox="0 0 24 24" fill="none" xmlns="http://www.w3.org/2000/svg">
<g clip-path="url(#clip0_122_7861)">
<g clip-path="url(#clip1_122_7861)">
<path d="M11.0927 14.2656C10.9753 14.2656 10.8579 14.3243 10.7405 14.383C10.6818 14.5005 10.623 14.6179 10.623 14.7353V15.9682C10.623 16.0856 10.6818 16.203 10.7405 16.3204C10.7992 16.4378 10.9753 16.4378 11.0927 16.4378C11.2101 16.4378 11.3275 16.3791 11.445 16.3204C11.5037 16.203 11.5624 16.0856 11.5624 15.9682V14.7353C11.5624 14.6179 11.5037 14.5005 11.445 14.383C11.3275 14.3243 11.2101 14.2656 11.0927 14.2656Z" fill="url(#paint0_linear_122_7861)"/>
<path d="M20.8982 10.8607L22.1311 11.5065L23.4814 8.80589L11.7397 2.93506L-0.00195312 8.74718L1.34834 11.4478L2.58121 10.8607V19.4321H0.819964V20.5476H9.91975V11.2129H13.6184V20.5476H22.7182V19.4321H20.9569V10.8607H20.8982ZM1.81801 9.98006L1.46576 9.27556L11.7397 4.16793L22.0137 9.27556L21.6614 9.98006L11.7397 5.16598L1.81801 9.98006ZM14.6164 7.74914H8.92171L11.7984 6.34014L14.6164 7.74914ZM8.8043 10.0975V19.4321H3.63796V18.1992H7.92367V17.0838H3.63796V15.8509H7.92367V14.7354H3.63796V13.5026H7.92367V12.3871H3.63796V11.1542H7.92367V10.0388H4.10763L6.63209 8.80589H16.8473L19.3718 10.0388H8.8043V10.0975ZM19.7828 19.4321H14.6751V18.1992H19.8415V19.4321H19.7828ZM19.7828 17.1425H14.6751V15.9096H19.8415V17.1425H19.7828ZM19.7828 14.7941H14.6751V13.5613H19.8415V14.7941H19.7828ZM19.7828 12.4458H14.6751V11.2129H19.8415V12.4458H19.7828Z" fill="url(#paint1_linear_122_7861)"/>
</g>
</g>
<defs>
<linearGradient id="paint0_linear_122_7861" x1="10.623" y1="15.3517" x2="11.5624" y2="15.3517" gradientUnits="userSpaceOnUse">
<stop stop-color="#434343"/>
<stop offset="1"/>
</linearGradient>
<linearGradient id="paint1_linear_122_7861" x1="-0.00195312" y1="11.7413" x2="23.4814" y2="11.7413" gradientUnits="userSpaceOnUse">
<stop stop-color="#434343"/>
<stop offset="1"/>
</linearGradient>
<clipPath id="clip0_122_7861">
<rect width="23.4833" height="23.4833" fill="white"/>
</clipPath>
<clipPath id="clip1_122_7861">
<rect width="23.4833" height="23.4833" fill="white"/>
</clipPath>
</defs>
</svg>
