<svg width="31" height="31" viewBox="0 0 31 31" fill="none" xmlns="http://www.w3.org/2000/svg">
<g clip-path="url(#clip0_69_18744)">
<path d="M30.1477 26.0392L23.0359 18.9268C21.9762 20.5748 20.5738 21.9765 18.9258 23.0362L26.0382 30.1486C27.1737 31.2838 29.0146 31.2838 30.1476 30.1486C31.2832 29.0153 31.2832 27.1743 30.1477 26.0392Z" fill="#5D4631"/>
<path d="M23.2499 11.625C23.2499 5.20527 18.0449 0 11.625 0C5.20527 0 0 5.20527 0 11.625C0 18.0448 5.20527 23.2498 11.625 23.2498C18.0449 23.2498 23.2499 18.0448 23.2499 11.625ZM11.625 20.3434C6.8172 20.3434 2.90633 16.4329 2.90633 11.6251C2.90633 6.81726 6.8172 2.9064 11.625 2.9064C16.4327 2.9064 20.3439 6.81726 20.3439 11.6251C20.3439 16.4329 16.4327 20.3434 11.625 20.3434Z" fill="#5D4631"/>
<path d="M4.84375 11.6249H6.78101C6.78101 8.95414 8.95414 6.7812 11.6249 6.7812V4.84375C7.88623 4.84375 4.84375 7.88623 4.84375 11.6249Z" fill="#5D4631"/>
</g>
<defs>
<clipPath id="clip0_69_18744">
<rect width="31" height="31" fill="white"/>
</clipPath>
</defs>
</svg>
