<svg width="24" height="24" viewBox="0 0 24 24" fill="none" xmlns="http://www.w3.org/2000/svg">
<g clip-path="url(#clip0_122_7875)">
<g clip-path="url(#clip1_122_7875)">
<path d="M22.8943 11.1546H20.9863C20.8395 8.87964 19.8855 6.75146 18.271 5.21036C16.6565 3.59589 14.5284 2.64188 12.3268 2.4951V0.587083C12.3268 0.440313 12.2534 0.293542 12.18 0.146771C12.0333 0.0733854 11.8865 0 11.7397 0C11.5929 0 11.4462 0.0733854 11.2994 0.146771C11.226 0.220156 11.1526 0.366927 11.1526 0.587083V2.4951C8.87768 2.64188 6.74951 3.59589 5.20841 5.21036C3.59393 6.82484 2.63992 8.95302 2.49315 11.1546H0.58513C0.438359 11.1546 0.291589 11.228 0.144818 11.3014C0.0714323 11.4481 -0.00195312 11.5949 -0.00195312 11.7417C-0.00195312 11.8884 0.0714323 12.0352 0.144818 12.182C0.218203 12.2554 0.364974 12.3287 0.58513 12.3287H2.49315C2.63992 14.6037 3.59393 16.7319 5.20841 18.273C6.82289 19.8874 8.95107 20.8415 11.1526 20.9882V22.8963C11.1526 23.043 11.226 23.1898 11.2994 23.3366C11.3728 23.4099 11.5196 23.4833 11.7397 23.4833C11.8865 23.4833 12.0333 23.4099 12.18 23.3366C12.2534 23.2632 12.3268 23.1164 12.3268 22.8963V20.9882C14.6017 20.8415 16.7299 19.8874 18.271 18.273C19.8855 16.6585 20.8395 14.5303 20.9863 12.3287H22.8943C23.0411 12.3287 23.1878 12.2554 23.3346 12.182C23.408 12.1086 23.4814 11.9618 23.4814 11.7417C23.4814 11.5949 23.408 11.4481 23.3346 11.3014C23.1878 11.228 23.0411 11.1546 22.8943 11.1546ZM19.8855 11.1546H17.6105C17.4638 9.83365 16.8767 8.58609 15.9227 7.63208C14.9687 6.67807 13.7211 6.09099 12.4002 5.94422V3.66927C14.3816 3.81604 16.2162 4.62328 17.5372 6.0176C18.8581 7.41193 19.7387 9.24656 19.8855 11.1546ZM11.7397 16.4383C10.7857 16.4383 9.90508 16.1448 9.17122 15.6311C8.43737 15.1174 7.7769 14.3835 7.48336 13.5029C7.11643 12.6223 7.04305 11.7417 7.18982 10.7877C7.33659 9.90703 7.85029 9.02641 8.43737 8.36594C9.09784 7.70547 9.90508 7.26516 10.8591 7.11839C11.7397 6.97161 12.6937 7.045 13.5743 7.41193C14.455 7.77885 15.1888 8.36594 15.7025 9.17318C16.2162 9.90703 16.5098 10.861 16.5098 11.7417C16.5098 12.9892 15.9961 14.1634 15.1154 15.044C14.1614 15.9246 12.9873 16.4383 11.7397 16.4383ZM11.1526 3.66927V5.94422C9.83169 6.09099 8.58414 6.67807 7.63013 7.63208C6.67612 8.58609 6.08904 9.83365 5.94227 11.1546H3.66732C3.81409 9.17318 4.62133 7.33854 6.01565 6.0176C7.40997 4.62328 9.24461 3.81604 11.1526 3.66927ZM3.66732 12.3287H5.94227C6.08904 13.6497 6.67612 14.8972 7.63013 15.8513C8.58414 16.8053 9.83169 17.3923 11.1526 17.5391V19.8141C9.17122 19.6673 7.40997 18.8601 6.01565 17.4657C4.62133 16.0714 3.81409 14.2368 3.66732 12.3287ZM12.3268 19.8141V17.5391C13.6477 17.3923 14.8953 16.8053 15.8493 15.8513C16.8033 14.8972 17.3904 13.6497 17.5372 12.3287H19.8121C19.6653 14.3102 18.8581 16.1448 17.4638 17.4657C16.0695 18.8601 14.2348 19.6673 12.3268 19.8141Z" fill="url(#paint0_linear_122_7875)"/>
<path d="M11.7374 9.1001C11.2237 9.1001 10.71 9.24687 10.2697 9.54041C9.82936 9.83395 9.46243 10.2743 9.31566 10.7146C9.0955 11.2283 9.0955 11.742 9.16889 12.2557C9.24228 12.7694 9.53582 13.2831 9.90274 13.65C10.2697 14.0169 10.7834 14.3105 11.2971 14.3838C11.8108 14.4572 12.3245 14.4572 12.8382 14.2371C13.3519 14.0169 13.7188 13.7234 14.0123 13.2831C14.3059 12.8428 14.4526 12.3291 14.4526 11.8154C14.4526 11.0815 14.1591 10.421 13.6454 9.90734C13.1317 9.32025 12.4712 9.1001 11.7374 9.1001ZM11.7374 13.2831C11.4438 13.2831 11.1503 13.2097 10.8568 12.9895C10.6366 12.8428 10.4164 12.5492 10.2697 12.3291C10.1229 12.0355 10.1229 11.742 10.1963 11.4484C10.2697 11.1549 10.4164 10.8613 10.6366 10.6412C10.8568 10.421 11.1503 10.2743 11.4438 10.2009C11.7374 10.1275 12.0309 10.2009 12.3245 10.2743C12.618 10.421 12.8382 10.5678 12.9849 10.8613C13.1317 11.0815 13.2785 11.375 13.2785 11.742C13.2785 12.1823 13.1317 12.5492 12.8382 12.8428C12.5446 13.1363 12.1777 13.2831 11.7374 13.2831Z" fill="url(#paint1_linear_122_7875)"/>
</g>
</g>
<defs>
<linearGradient id="paint0_linear_122_7875" x1="-0.00195312" y1="11.7417" x2="23.4814" y2="11.7417" gradientUnits="userSpaceOnUse">
<stop stop-color="#434343"/>
<stop offset="1"/>
</linearGradient>
<linearGradient id="paint1_linear_122_7875" x1="9.125" y1="11.7639" x2="14.4526" y2="11.7639" gradientUnits="userSpaceOnUse">
<stop stop-color="#434343"/>
<stop offset="1"/>
</linearGradient>
<clipPath id="clip0_122_7875">
<rect width="23.4833" height="23.4833" fill="white"/>
</clipPath>
<clipPath id="clip1_122_7875">
<rect width="23.4833" height="23.4833" fill="white"/>
</clipPath>
</defs>
</svg>
