<svg width="14" height="14" viewBox="0 0 14 14" fill="none" xmlns="http://www.w3.org/2000/svg">
<path d="M1.61434 6.45806L4.03605 7.33869L4.91668 10.2741C4.99007 10.4943 5.21022 10.5676 5.35699 10.4209L6.67793 9.32009C6.8247 9.17332 7.04486 9.17332 7.19163 9.32009L9.53996 11.008C9.68673 11.1547 9.90689 11.008 9.98027 10.8612L11.7415 2.49525C11.8149 2.27509 11.5948 2.12832 11.3746 2.20171L1.61434 5.87098C1.39418 6.01775 1.39418 6.31129 1.61434 6.45806ZM4.76991 6.82499L9.39319 3.96296C9.46658 3.88957 9.53996 4.03634 9.46657 4.10973L5.65053 7.63223C5.50376 7.779 5.43038 7.92577 5.43038 8.07254L5.28361 9.02655C5.28361 9.17332 5.06345 9.17332 5.06345 9.02655L4.54975 7.33869C4.54975 7.19192 4.62314 6.97176 4.76991 6.82499Z" fill="white"/>
</svg>
