<svg width="14" height="14" viewBox="0 0 14 14" fill="none" xmlns="http://www.w3.org/2000/svg">
<g clip-path="url(#clip0_122_7911)">
<mask id="mask0_122_7911" style="mask-type:luminance" maskUnits="userSpaceOnUse" x="-1" y="0" width="15" height="14">
<path d="M-0.00976562 0.00195312H13.1996V13.2113H-0.00976562V0.00195312Z" fill="white"/>
</mask>
<g mask="url(#mask0_122_7911)">
<path d="M6.59639 0.00195312H6.59345C2.95207 0.00195312 -0.00976562 2.96452 -0.00976562 6.60664C-0.00976562 8.0516 0.456232 9.39015 1.24806 10.4777L0.423942 12.9325L2.96308 12.1208C4.03983 12.8348 5.30373 13.2142 6.59566 13.2113C10.2385 13.2113 13.1996 10.248 13.1996 6.60664C13.1996 2.96526 10.2385 0.00195312 6.59639 0.00195312Z" fill="#3CA544"/>
<path d="M10.4432 9.32798C10.2832 9.77783 9.65066 10.1506 9.1465 10.26C8.80159 10.3334 8.35027 10.3921 6.83339 9.76316C4.89235 8.95885 3.64259 6.98625 3.54499 6.85856C3.45179 6.73014 2.75977 5.81355 2.75977 4.86615C2.75977 3.91874 3.24117 3.45715 3.43491 3.25901C3.59416 3.09609 3.85761 3.02197 4.11006 3.02197C4.19225 3.02197 4.26563 3.02638 4.33168 3.02931C4.52542 3.03738 4.62302 3.04913 4.75145 3.35514C4.91069 3.73968 5.29817 4.68709 5.3444 4.78469C5.3921 4.88229 5.43907 5.01439 5.37302 5.14208C5.31064 5.27417 5.25634 5.33288 5.15874 5.44516C5.06187 5.55744 4.9694 5.6433 4.8718 5.76365C4.78227 5.86859 4.68173 5.98087 4.79401 6.17461C4.90629 6.36541 5.2945 6.99799 5.86544 7.50656C6.60296 8.16262 7.20105 8.3725 7.41387 8.46203C7.57385 8.52808 7.76392 8.51194 7.87987 8.38865C8.0281 8.22867 8.2101 7.96448 8.3965 7.7047C8.52859 7.5183 8.69518 7.49481 8.86984 7.56086C9.04816 7.62324 9.99263 8.08924 10.1856 8.1861C10.3801 8.28371 10.5085 8.32994 10.5548 8.4114C10.601 8.49286 10.601 8.87666 10.4418 9.32798H10.4432Z" fill="#FAFAFA"/>
</g>
</g>
<defs>
<clipPath id="clip0_122_7911">
<rect width="13.2094" height="13.2094" fill="white"/>
</clipPath>
</defs>
</svg>
