<svg width="13" height="15" viewBox="0 0 13 15" fill="none" xmlns="http://www.w3.org/2000/svg">
<path d="M0.5 2.49976V12.495" stroke="black" stroke-width="0.9995" stroke-linecap="round"/>
<path d="M12.5 5.49976V12.4998" stroke="black" stroke-width="0.9995" stroke-linecap="round" stroke-linejoin="round"/>
<path d="M2.5 0.499756H7.5" stroke="black" stroke-width="0.9995" stroke-linecap="round" stroke-linejoin="round"/>
<path d="M2.5 14.4998H10.5" stroke="black" stroke-width="0.9995" stroke-linecap="round"/>
<path d="M12.5 12.4998C12.5055 13.4986 11.5 14.4998 10.5 14.4998" stroke="black" stroke-width="0.9995" stroke-linecap="round" stroke-linejoin="round"/>
<path d="M0.5 12.4998C0.5 13.4998 1.5 14.4998 2.5 14.4998" stroke="black" stroke-width="0.9995" stroke-linecap="round" stroke-linejoin="round"/>
<path d="M0.5 2.49829C0.5 1.49974 1.5 0.522012 2.5 0.499742" stroke="black" stroke-width="0.9995" stroke-linecap="round" stroke-linejoin="round"/>
<path d="M12.4945 5.50424L7.5 0.499756" stroke="black" stroke-width="0.9995" stroke-linecap="round" stroke-linejoin="round"/>
<path d="M7.5 3.49976C7.50307 4.49431 8.50403 5.49976 9.5 5.49976" stroke="black" stroke-width="0.9995" stroke-linecap="round" stroke-linejoin="round"/>
<path d="M7.5 3.49976V0.499756" stroke="black" stroke-width="0.9995" stroke-linecap="round" stroke-linejoin="round"/>
<path d="M9.5 5.49976H12.5" stroke="black" stroke-width="0.9995" stroke-linecap="round" stroke-linejoin="round"/>
<path d="M2.5 12.4998H5.5" stroke="black" stroke-linecap="round" stroke-linejoin="round"/>
<path d="M2.5 10.4998H7.5" stroke="black" stroke-linecap="round" stroke-linejoin="round"/>
<path d="M2.5 8.49976H5.5" stroke="black" stroke-linecap="round" stroke-linejoin="round"/>
</svg>
