<svg width="30" height="30" viewBox="0 0 30 30" fill="none" xmlns="http://www.w3.org/2000/svg">
<rect width="30" height="30" rx="15" fill="#54CC61"/>
<path d="M20.6 9.32005C19.8669 8.58147 18.9943 7.99602 18.033 7.59773C17.0716 7.19945 16.0406 6.99628 15 7.00005C13.6089 7.00141 12.2425 7.36825 11.0377 8.06383C9.83294 8.75941 8.83208 9.75932 8.13534 10.9634C7.4386 12.1675 7.07046 13.5335 7.06776 14.9247C7.06507 16.3158 7.42793 17.6833 8.12 18.8901L7 23.0001L11.2 21.9001C12.3593 22.5465 13.6627 22.8904 14.99 22.9001C17.0997 22.9001 19.124 22.0669 20.6222 20.5817C22.1205 19.0965 22.9715 17.0796 22.99 14.9701C22.983 13.9174 22.7682 12.8764 22.3581 11.9069C21.948 10.9373 21.3505 10.0582 20.6 9.32005ZM15 21.5301C13.8178 21.5298 12.6574 21.2121 11.64 20.6101L11.4 20.4601L8.91 21.1201L9.57 18.6901L9.41 18.4401C8.55925 17.0667 8.24174 15.429 8.51762 13.8373C8.7935 12.2455 9.64361 10.8102 10.9069 9.80328C12.1702 8.79634 13.7589 8.28771 15.3721 8.37374C16.9853 8.45976 18.511 9.13447 19.66 10.2701C20.916 11.4982 21.635 13.1735 21.66 14.9301C21.6442 16.686 20.9355 18.3646 19.6882 19.6006C18.441 20.8367 16.756 21.5301 15 21.5301ZM18.61 16.5901C18.41 16.4901 17.44 16.0101 17.26 15.9501C17.08 15.8901 16.94 15.8501 16.81 16.0501C16.6144 16.3181 16.404 16.5752 16.18 16.8201C16.07 16.9601 15.95 16.9701 15.75 16.8201C14.6097 16.3694 13.6597 15.5395 13.06 14.4701C12.85 14.1201 13.26 14.1401 13.64 13.3901C13.6681 13.336 13.6827 13.276 13.6827 13.2151C13.6827 13.1541 13.6681 13.0941 13.64 13.0401C13.64 12.9401 13.19 11.9601 13.03 11.5701C12.87 11.1801 12.71 11.2401 12.58 11.2301H12.19C12.0888 11.2309 11.9891 11.2538 11.8976 11.2969C11.8061 11.3401 11.725 11.4026 11.66 11.4801C11.4361 11.6986 11.2615 11.9624 11.1477 12.2538C11.0339 12.5453 10.9835 12.8576 11 13.1701C11.0615 13.9184 11.3434 14.6318 11.81 15.2201C12.6625 16.4955 13.8303 17.5289 15.2 18.2201C15.9185 18.6395 16.7535 18.8149 17.58 18.7201C17.8552 18.6654 18.1159 18.5535 18.345 18.3916C18.5742 18.2296 18.7667 18.0213 18.91 17.7801C19.044 17.486 19.0858 17.1583 19.03 16.8401C18.94 16.7401 18.81 16.6901 18.61 16.5901Z" fill="white"/>
</svg>
