<svg width="199" height="43" viewBox="0 0 199 43" fill="none" xmlns="http://www.w3.org/2000/svg">
<g clip-path="url(#clip0_69_18567)">
<path d="M0 23.1793C0.189929 23.4229 0.413773 23.662 0.671533 23.8965C1.15766 24.3405 1.74101 24.7504 2.41255 25.1078C3.08408 25.4722 3.83701 25.7659 4.65099 25.9799C6.33774 26.4376 8.30938 26.4353 9.87403 25.9048C10.6564 25.6452 11.3482 25.2672 11.9316 24.7822C12.4923 24.3178 12.9423 23.744 13.2656 23.0791C13.5844 22.4165 13.7404 21.7038 13.7404 20.9001C13.7404 20.0963 13.6116 19.4929 13.3561 18.9988C13.0938 18.4865 12.7343 18.0539 12.2594 17.6782C11.7597 17.2866 11.1538 16.945 10.4619 16.6695C9.71802 16.3735 8.89951 16.1048 8.02901 15.868C7.27155 15.6699 6.5955 15.4764 6.0031 15.2783C5.38583 15.0779 4.84544 14.8434 4.39775 14.5793C3.91615 14.2947 3.53629 13.9668 3.27401 13.6002C2.97555 13.1858 2.82632 12.694 2.82632 12.1452C2.82632 11.8014 2.92128 11.453 3.10895 11.1069C3.27853 10.7882 3.52499 10.499 3.83475 10.2508C4.13773 10.0117 4.50628 9.81593 4.93136 9.66337C6.04154 9.27174 7.71246 9.38558 9.06909 9.97303C9.74967 10.2668 10.4393 10.7221 11.1628 11.3551L13.1729 10.055C13.0011 9.87285 12.8157 9.69069 12.6144 9.50399C12.178 9.09641 11.6603 8.72755 11.0746 8.40878C10.4868 8.08317 9.80394 7.81222 9.04422 7.60274C7.60167 7.18834 5.60968 7.14735 4.04051 7.66194C3.29436 7.91013 2.63639 8.26078 2.08469 8.71616C1.54656 9.16472 1.13505 9.6998 0.832068 10.351C0.531348 10.9999 0.377596 11.7445 0.377596 12.5619C0.377596 13.2996 0.504215 13.9372 0.755192 14.4563C1.01069 14.9869 1.36568 15.4263 1.84502 15.8066C2.34924 16.205 2.98233 16.5557 3.7217 16.838C4.51307 17.1431 5.40844 17.4186 6.38974 17.6577C7.28964 17.8831 8.00187 18.1063 8.58071 18.3385C9.19797 18.5867 9.6841 18.8417 10.064 19.1263C10.4755 19.4292 10.7807 19.7639 10.9729 20.1191C11.1696 20.4925 11.2668 20.8773 11.2668 21.2712C11.2668 21.8245 11.1199 22.3072 10.8282 22.7057C10.5682 23.0541 10.2381 23.3455 9.84237 23.5709C9.47156 23.7804 9.05553 23.9352 8.60332 24.0309C7.55192 24.2494 6.47114 24.1789 5.59611 23.9694C5.0625 23.8396 4.55603 23.6438 4.09025 23.391C3.64482 23.1474 3.21296 22.8446 2.81049 22.4894C2.57986 22.289 2.34924 22.0681 2.11635 21.8336L0 23.1793Z" fill="white"/>
<path d="M42.5956 43H45.1732L27.6183 0H25.0181L33.2325 19.8959H24.6405L27.6907 12.448L25.7303 10.7494L19.7725 25.463H22.3546L23.8356 21.9019H34.0058L42.5956 43Z" fill="white"/>
<path d="M40.5335 7.5459V18.4069C40.5335 19.4976 40.737 20.5336 41.1417 21.4853C41.5442 22.4303 42.1095 23.275 42.8217 23.9854C43.5317 24.6935 44.3773 25.2582 45.3315 25.6726C46.0437 25.9754 46.8034 26.1713 47.597 26.2441V24.2723C47.1358 24.1972 46.6904 24.0583 46.263 23.8556C45.6164 23.546 45.0421 23.127 44.5605 22.6079C44.0743 22.0819 43.6899 21.4671 43.4186 20.7817C43.145 20.0896 43.0071 19.3382 43.0071 18.5503V7.5459H40.5312H40.5335Z" fill="white"/>
<path d="M49.8694 24.0879L50.8236 25.8684C51.4499 25.6521 52.0446 25.3584 52.5985 24.9941C53.3221 24.5159 53.9552 23.933 54.4797 23.2704C55.0066 22.5987 55.4249 21.8382 55.7278 21.0163C56.0263 20.2011 56.1755 19.3222 56.1755 18.4069V7.5459H53.6997L53.6793 19.0467C53.6364 19.6114 53.5165 20.1601 53.3221 20.6793C53.0711 21.3533 52.7139 21.9566 52.2639 22.4712C51.8117 22.9927 51.2803 23.4207 50.6879 23.7395C50.4257 23.8807 50.1498 23.9991 49.8672 24.0879H49.8694Z" fill="white"/>
<path d="M74.929 26.0529H77.8955V25.6567L65.4144 7.5459H62.4502V26.0529H65.0414V11.6831L74.929 26.0529Z" fill="white"/>
<path d="M75.3047 18.3727L77.8959 20.2489V7.5459H75.3047V18.3727Z" fill="white"/>
<path d="M100.149 26.0529H102.734L95.1999 7.5459H92.5907L97.8657 20.4903H89.2759L91.3787 15.3763L88.7514 15.3308L84.4102 26.0529H86.9923L88.4755 22.4917H98.639L100.149 26.0529Z" fill="white"/>
<path d="M130.712 26.0529H133.244V7.5459H130.712V15.8977H122.94L124.023 18.0449H130.712V26.0529Z" fill="white"/>
<path d="M120.39 7.5459H117.799V26.0551H120.39V7.5459Z" fill="white"/>
<path d="M148.538 7.28613C147.247 7.28613 146.033 7.53887 144.925 8.03752C143.808 8.53617 142.824 9.22153 142.004 10.0754C141.185 10.9247 140.536 11.9402 140.075 13.0923C139.609 14.2445 139.374 15.4945 139.374 16.8015C139.374 18.1084 139.609 19.3585 140.073 20.5083C140.534 21.6605 141.185 22.6805 142.006 23.5435C142.822 24.4019 143.801 25.085 144.918 25.5745C145.752 25.9457 146.175 26.1278 146.539 26.2052L147.405 24.0695C146.854 23.9738 146.334 23.8076 145.843 23.5708C145.042 23.1837 144.335 22.6464 143.745 21.9769C143.159 21.3121 142.696 20.5243 142.37 19.6317C142.044 18.7414 141.879 17.7919 141.879 16.8037C141.879 15.8155 142.044 14.8638 142.37 13.9735C142.698 13.0809 143.161 12.2931 143.745 11.6283C144.335 10.9611 145.043 10.4238 145.845 10.0344C147.475 9.24885 149.601 9.24885 151.226 10.0344C152.034 10.426 152.737 10.9657 153.316 11.6328C153.892 12.3 154.347 13.0855 154.672 13.9758C154.998 14.8661 155.163 15.8178 155.163 16.806C155.163 17.7942 155.014 18.6594 154.722 19.5179C154.428 20.374 154.01 21.1413 153.476 21.7993C152.94 22.4574 152.296 23.0038 151.559 23.4251C151.145 23.6596 150.706 23.8395 150.245 23.967L151.36 25.8705C152.154 25.6223 152.9 25.2671 153.585 24.8049C154.424 24.2402 155.163 23.5412 155.778 22.7306C156.386 21.9246 156.863 21.007 157.193 20.0006C157.526 18.9919 157.695 17.9194 157.695 16.8083C157.695 15.5013 157.46 14.2513 156.997 13.0992C156.533 11.947 155.884 10.9315 155.066 10.0822C154.245 9.22836 153.261 8.543 152.149 8.04435C151.041 7.5457 149.825 7.29296 148.536 7.29296L148.538 7.28613Z" fill="white"/>
<path d="M178.253 26.0529H180.699V15.0029L178.253 16.6992V26.0529Z" fill="white"/>
<path d="M163.829 26.0529H166.276V12.8034L172.276 21.8838L180.699 9.09649V7.5459H178.829L172.281 17.5098L165.701 7.5459H163.829V26.0529Z" fill="white"/>
<path d="M187.116 26.0529H198.912V24.3064H189.533L189.565 9.31963H198.935L198.919 7.5459H187.116V26.0529Z" fill="white"/>
<path d="M193.37 18.0449H196.544V15.8977H192.303L193.37 18.0449Z" fill="white"/>
<path d="M30.398 34.8235H3.7334V35.7115H30.398V34.8235Z" fill="#EAD5AE"/>
<path d="M50.8283 33.7715C51.3212 33.7715 51.7463 33.9514 52.1012 34.3111C52.4562 34.6709 52.6349 35.1103 52.6349 35.6272C52.6349 36.1441 52.4585 36.5744 52.108 36.9296C51.7576 37.2848 51.3325 37.4624 50.8328 37.4624C50.3331 37.4624 49.8741 37.2802 49.5259 36.9159C49.18 36.5516 49.0059 36.1167 49.0059 35.6158C49.0059 35.2788 49.0873 34.9692 49.2478 34.6891C49.4083 34.409 49.6322 34.1836 49.9148 34.0197C50.1974 33.8557 50.5027 33.7715 50.8283 33.7715ZM50.8215 34.4272C50.4982 34.4272 50.2268 34.5411 50.0052 34.7665C49.7859 34.9942 49.6751 35.2811 49.6751 35.6295C49.6751 36.0188 49.8131 36.3262 50.0912 36.5516C50.306 36.7292 50.5547 36.8158 50.8328 36.8158C51.1471 36.8158 51.4161 36.7019 51.6377 36.4719C51.8593 36.242 51.9701 35.9596 51.9701 35.6226C51.9701 35.2856 51.8593 35.0056 51.6355 34.7733C51.4116 34.5411 51.1403 34.425 50.8215 34.425V34.4272Z" fill="#EAD5AE"/>
<path d="M55.5 33.8625H57.4287V34.5206H56.7933V37.3759H56.1195V34.5206H55.5V33.8625Z" fill="#EAD5AE"/>
<path d="M61.6003 33.8625H62.2718L63.3956 36.7497H63.7845V37.9041H63.1423V37.3781H60.7411V37.9041H60.0967V36.7497H60.4833L61.6025 33.8625H61.6003ZM61.9417 34.7961L61.1775 36.7497H62.7037L61.9417 34.7961Z" fill="#EAD5AE"/>
<path d="M66.7959 33.8626H68.702V34.5161H67.4561V35.1514H68.702V35.7935H67.4561V36.7179H68.702V37.3759H66.7959V33.8604V33.8626Z" fill="#EAD5AE"/>
<path d="M74.1603 37.3759L73.1949 34.7916L72.2113 37.3759H71.5059L72.8534 33.8604H73.5272L74.8703 37.3759H74.1603Z" fill="#EAD5AE"/>
<path d="M77.8594 33.8625H78.5309V35.0739L79.4783 33.8625H80.2764L79.0577 35.4314L80.3963 37.3781H79.6072L78.5309 35.8162V37.3781H77.8594V33.8625Z" fill="#EAD5AE"/>
<path d="M84.5133 33.8625H85.1871L86.5302 37.3781H85.8405L85.567 36.6541H84.1425L83.8576 37.3781H83.168L84.5133 33.8625ZM84.8547 34.7938L84.3867 36.0006H85.3205L84.8547 34.7938Z" fill="#EAD5AE"/>
<path d="M93.5648 37.3759V33.8604H95.3894V34.5116H94.2295V35.1855H94.3742C94.6682 35.1855 94.9101 35.2197 95.0955 35.2834C95.2832 35.3472 95.4369 35.4724 95.5613 35.6523C95.6856 35.8322 95.7467 36.0462 95.7467 36.2921C95.7467 36.538 95.6992 36.7338 95.6065 36.8796C95.5138 37.0253 95.3849 37.1437 95.2199 37.2348C95.0571 37.3259 94.8287 37.3714 94.5393 37.3714H93.5625L93.5648 37.3759ZM94.2295 35.7844V36.7384H94.3968C94.6998 36.7384 94.892 36.6974 94.9734 36.6177C95.0548 36.538 95.0955 36.431 95.0955 36.2944C95.0955 35.9529 94.8536 35.7844 94.3697 35.7844H94.2318H94.2295Z" fill="#EAD5AE"/>
<path d="M99.9772 33.8625H100.651L101.994 37.3781H101.304L101.031 36.6541H99.6064L99.3215 37.3781H98.6318L99.9772 33.8625ZM100.319 34.7938L99.8505 36.0006H100.784L100.319 34.7938Z" fill="#EAD5AE"/>
<path d="M105.087 33.8625H105.761V35.1877H106.925V33.8625H107.597V37.3781H106.925V35.8367H105.761V37.3781H105.087V33.8625Z" fill="#EAD5AE"/>
<path d="M110.972 37.3759V33.8604H111.637V35.1855H111.781C112.057 35.1855 112.29 35.2174 112.473 35.2834C112.656 35.3495 112.817 35.4724 112.95 35.6523C113.084 35.8322 113.152 36.0508 113.152 36.3058C113.152 36.5471 113.093 36.7521 112.978 36.9183C112.862 37.0845 112.729 37.2052 112.575 37.2735C112.421 37.3418 112.213 37.3759 111.946 37.3759H110.97H110.972ZM111.637 35.7844V36.7384H111.804C112.08 36.7384 112.263 36.7042 112.356 36.6359C112.448 36.5676 112.496 36.4492 112.496 36.2853C112.496 35.9529 112.256 35.7866 111.775 35.7866H111.637V35.7844Z" fill="#EAD5AE"/>
<path d="M113.975 36.7156L114.438 36.9501L113.853 37.9588L113.529 37.804L113.975 36.7179V36.7156Z" fill="#EAD5AE"/>
<path d="M124.826 34.4795L124.36 34.9258C124.043 34.5888 123.688 34.4226 123.293 34.4226C122.96 34.4226 122.678 34.5365 122.449 34.7664C122.221 34.9964 122.106 35.2787 122.106 35.6157C122.106 35.8502 122.155 36.0575 122.257 36.2396C122.359 36.4218 122.501 36.5652 122.687 36.6677C122.872 36.7701 123.078 36.8225 123.304 36.8225C123.496 36.8225 123.672 36.7861 123.833 36.7132C123.994 36.6403 124.168 36.5083 124.36 36.317L124.81 36.7906C124.552 37.0434 124.308 37.2187 124.079 37.3166C123.849 37.4145 123.589 37.4646 123.295 37.4646C122.752 37.4646 122.307 37.2916 121.963 36.9455C121.619 36.5994 121.445 36.1554 121.445 35.6134C121.445 35.2628 121.524 34.9509 121.68 34.6799C121.836 34.4089 122.063 34.1881 122.357 34.0219C122.65 33.8557 122.967 33.7737 123.304 33.7737C123.591 33.7737 123.869 33.8352 124.136 33.9581C124.403 34.0811 124.633 34.2541 124.826 34.4795Z" fill="#EAD5AE"/>
<path d="M129.051 33.8625H129.725L131.068 37.3781H130.379L130.105 36.6541H128.681L128.396 37.3781H127.706L129.051 33.8625ZM129.393 34.7938L128.925 36.0006H129.859L129.393 34.7938Z" fill="#EAD5AE"/>
<path d="M135.141 36.5698L133.902 33.8625H134.652L135.475 35.823L136.149 33.8625H136.832L135.903 36.3763C135.742 36.8066 135.568 37.0935 135.38 37.2393C135.193 37.385 134.994 37.4578 134.781 37.4578C134.435 37.4578 134.119 37.2871 133.827 36.9455L134.264 36.5038C134.438 36.7087 134.609 36.8089 134.779 36.8089C134.856 36.8089 134.917 36.7907 134.967 36.7543C135.016 36.7156 135.075 36.6564 135.143 36.5698H135.141Z" fill="#EAD5AE"/>
<path d="M139.859 33.8625H140.533V35.1877H141.698V33.8625H142.369V37.3781H141.698V35.8367H140.533V37.3781H139.859V33.8625Z" fill="#EAD5AE"/>
<path d="M143.407 36.7156L143.871 36.9501L143.285 37.9588L142.962 37.804L143.407 36.7179V36.7156Z" fill="#EAD5AE"/>
<path d="M150.821 33.8625H151.569L152.302 34.9896L153.037 33.8625H153.783L152.675 35.568L153.853 37.3781H153.107L152.302 36.1418L151.499 37.3781H150.746L151.926 35.5657L150.818 33.8625H150.821Z" fill="#EAD5AE"/>
<path d="M158 33.8625H158.673L160.016 37.3781H159.327L159.053 36.6541H157.629L157.344 37.3781H156.654L158 33.8625ZM158.341 34.7938L157.873 36.0006H158.807L158.341 34.7938Z" fill="#EAD5AE"/>
<path d="M163.449 33.8625H164.095L164.905 36.3148L165.721 33.8625H166.368L166.953 37.3781H166.311L165.936 35.1581L165.194 37.3781H164.609L163.874 35.1581L163.489 37.3781H162.843L163.446 33.8625H163.449Z" fill="#EAD5AE"/>
<path d="M170.404 33.8625H171.05L171.86 36.3148L172.676 33.8625H173.323L173.908 37.3781H173.266L172.891 35.1581L172.149 37.3781H171.564L170.829 35.1581L170.445 37.3781H169.798L170.402 33.8625H170.404Z" fill="#EAD5AE"/>
<path d="M178.085 33.8625H178.758L180.101 37.3781H179.412L179.138 36.6541H177.714L177.429 37.3781H176.739L178.085 33.8625ZM178.426 34.7938L177.958 36.0006H178.892L178.426 34.7938Z" fill="#EAD5AE"/>
<path d="M183.537 33.8625H184.183L184.993 36.3148L185.809 33.8625H186.456L187.041 37.3781H186.399L186.024 35.1581L185.282 37.3781H184.697L183.962 35.1581L183.577 37.3781H182.931L183.534 33.8625H183.537Z" fill="#EAD5AE"/>
<path d="M191.801 33.7715C192.294 33.7715 192.719 33.9514 193.074 34.3111C193.429 34.6709 193.608 35.1103 193.608 35.6272C193.608 36.1441 193.431 36.5744 193.081 36.9296C192.73 37.2848 192.305 37.4624 191.805 37.4624C191.306 37.4624 190.847 37.2802 190.499 36.9159C190.153 36.5516 189.979 36.1167 189.979 35.6158C189.979 35.2788 190.06 34.9692 190.22 34.6891C190.381 34.409 190.605 34.1836 190.887 34.0197C191.17 33.8557 191.475 33.7715 191.801 33.7715ZM191.794 34.4272C191.471 34.4272 191.199 34.5411 190.978 34.7665C190.759 34.9942 190.648 35.2811 190.648 35.6295C190.648 36.0188 190.786 36.3262 191.064 36.5516C191.279 36.7292 191.527 36.8158 191.805 36.8158C192.12 36.8158 192.389 36.7019 192.61 36.4719C192.832 36.242 192.943 35.9596 192.943 35.6226C192.943 35.2856 192.832 35.0056 192.608 34.7733C192.384 34.5411 192.113 34.425 191.794 34.425V34.4272Z" fill="#EAD5AE"/>
<path d="M196.815 37.3759V33.8604H197.365C197.684 33.8604 197.917 33.8808 198.064 33.9218C198.272 33.9787 198.439 34.0812 198.563 34.2315C198.688 34.384 198.749 34.5616 198.749 34.7666C198.749 34.9009 198.721 35.0216 198.665 35.1309C198.608 35.2402 198.518 35.3426 198.391 35.4383C198.604 35.5385 198.758 35.6637 198.857 35.8162C198.954 35.9665 199.004 36.1441 199.004 36.349C199.004 36.554 198.952 36.727 198.853 36.8887C198.753 37.0503 198.62 37.1733 198.461 37.253C198.303 37.3327 198.082 37.3737 197.799 37.3737H196.82L196.815 37.3759ZM197.48 34.4979V35.2379H197.625C197.788 35.2379 197.908 35.2037 197.987 35.1354C198.066 35.0671 198.104 34.9738 198.104 34.8554C198.104 34.7461 198.068 34.6573 197.993 34.5935C197.919 34.5298 197.806 34.4956 197.652 34.4956H197.48V34.4979ZM197.48 35.8367V36.7384H197.647C197.923 36.7384 198.109 36.7042 198.206 36.6337C198.303 36.5631 198.351 36.4629 198.351 36.3286C198.351 36.1783 198.294 36.0576 198.181 35.9711C198.068 35.8823 197.88 35.839 197.62 35.839H197.482L197.48 35.8367Z" fill="#EAD5AE"/>
</g>
<defs>
<clipPath id="clip0_69_18567">
<rect width="199" height="43" fill="white"/>
</clipPath>
</defs>
</svg>
