<svg width="24" height="6" viewBox="0 0 24 6" fill="none" xmlns="http://www.w3.org/2000/svg">
<path d="M23.4004 3.3458C23.6213 3.3458 23.8004 3.16671 23.8004 2.9458C23.8004 2.72489 23.6213 2.5458 23.4004 2.5458V2.9458V3.3458ZM0.117548 2.66296C-0.0386618 2.81917 -0.0386618 3.07243 0.117548 3.22864L2.66313 5.77423C2.81934 5.93044 3.07261 5.93044 3.22882 5.77423C3.38503 5.61802 3.38503 5.36475 3.22882 5.20854L0.966076 2.9458L3.22882 0.683059C3.38503 0.526849 3.38503 0.273583 3.22882 0.117374C3.07261 -0.038836 2.81934 -0.038836 2.66313 0.117374L0.117548 2.66296ZM23.4004 2.9458V2.5458H0.400391V2.9458V3.3458H23.4004V2.9458Z" fill="#202020"/>
</svg>
