<svg width="64" height="6" viewBox="0 0 64 6" fill="none" xmlns="http://www.w3.org/2000/svg">
<path d="M0.400391 2.5458C0.179474 2.5458 0.000389099 2.72489 0.000389099 2.9458C0.000389099 3.16671 0.179474 3.3458 0.400391 3.3458V2.9458V2.5458ZM63.6832 3.22864C63.8394 3.07243 63.8394 2.81917 63.6832 2.66296L61.1376 0.117374C60.9814 -0.038836 60.7282 -0.038836 60.572 0.117374C60.4158 0.273583 60.4158 0.526849 60.572 0.683059L62.8347 2.9458L60.572 5.20854C60.4158 5.36475 60.4158 5.61802 60.572 5.77423C60.7282 5.93044 60.9814 5.93044 61.1376 5.77423L63.6832 3.22864ZM0.400391 2.9458V3.3458L63.4004 3.3458V2.9458V2.5458L0.400391 2.5458V2.9458Z" fill="white"/>
</svg>
