<svg width="18" height="19" viewBox="0 0 18 19" fill="none" xmlns="http://www.w3.org/2000/svg">
<path d="M16.8452 12.8212L14.4024 10.3783C14.1452 9.99262 13.7595 9.86405 13.2452 9.86405C12.7309 9.86405 12.3452 9.99262 11.9595 10.3783L11.0595 11.2783C10.2881 10.8926 9.25951 10.3783 8.35951 9.34976C7.33094 8.32119 6.68808 7.29262 6.30237 6.64976L7.20237 5.74976C7.84522 5.10691 7.9738 3.94976 7.20237 3.17833L4.88808 0.735477C4.50237 0.349763 4.11665 0.221191 3.60237 0.221191C3.08808 0.221191 2.70237 0.349763 2.31665 0.735477C2.18808 0.864049 1.15951 1.76405 0.773795 3.69262C0.25951 6.39262 1.41665 8.96405 5.14522 12.564C9.13094 16.5498 12.6024 16.9355 13.5024 16.9355H13.8881C15.8167 16.6783 16.4595 15.9069 16.9738 15.264C17.4881 14.4926 17.4881 13.464 16.8452 12.8212ZM16.0738 14.6212C15.5595 15.1355 15.1738 15.7783 13.7595 15.9069H13.5024C12.6024 15.9069 9.51665 15.6498 5.78808 11.7926C2.44522 8.44976 1.28808 6.26405 1.80237 3.94976C2.18808 2.27833 3.08808 1.63548 3.08808 1.50691C3.21665 1.37833 3.4738 1.24976 3.60237 1.24976C3.73094 1.24976 3.98808 1.37833 4.11665 1.50691L6.55951 3.94976C6.81665 4.20691 6.81665 4.72119 6.55951 4.97833L5.53094 6.00691C5.14522 6.39262 5.2738 6.77833 5.40237 7.03548C5.78808 7.80691 6.43094 8.96405 7.58808 10.1212C8.74522 11.2783 9.7738 11.9212 10.6738 12.3069C10.8024 12.3069 10.9309 12.4355 11.0595 12.4355C11.3167 12.4355 11.5738 12.3069 11.7024 12.1783L12.7309 11.1498C12.8595 11.0212 13.1167 10.8926 13.2452 10.8926C13.3738 10.8926 13.6309 11.0212 13.7595 11.1498L16.2024 13.5926C16.4595 13.8498 16.3309 14.2355 16.0738 14.6212ZM11.0595 1.50691C12.2167 1.63548 13.5024 2.27833 14.4024 3.17833C15.3024 4.07833 15.9452 5.49262 16.0738 6.52119C16.0738 6.90691 16.3309 7.16405 16.7167 7.16405H16.8452C17.2309 7.16405 17.4881 6.77833 17.3595 6.39262C17.2309 4.97833 16.4595 3.43548 15.3024 2.27833C14.1452 1.24976 12.6024 0.349763 11.1881 0.221191C10.8024 0.221191 10.5452 0.478334 10.4167 0.735477C10.4167 1.12119 10.6738 1.50691 11.0595 1.50691ZM10.4167 4.20691C11.0595 4.33548 11.8309 4.72119 12.3452 5.23548C12.8595 5.74976 13.3738 6.64976 13.3738 7.29262C13.3738 7.67833 13.6309 7.93548 14.0167 7.93548H14.1452C14.5309 7.93548 14.7881 7.54976 14.6595 7.16405C14.5309 6.13548 13.8881 4.97833 13.2452 4.33548C12.6024 3.69262 11.5738 3.04976 10.5452 2.92119C10.1595 2.92119 9.90237 3.17833 9.7738 3.43548C9.7738 3.82119 10.0309 4.20691 10.4167 4.20691Z" fill="#B5B5B5"/>
</svg>
